<svg width="40" height="40" viewBox="0 0 40 40" fill="none" xmlns="http://www.w3.org/2000/svg">
<path d="M7.84265 0.0100098C3.53397 0.0100098 0.00756836 3.53633 0.00756836 7.84509V32.1587C0.00756836 36.4674 3.53389 39.9925 7.84265 39.9925H32.1563C36.465 39.9925 39.9901 36.4675 39.9901 32.1587V7.84509C39.9901 3.53641 36.465 0.0100098 32.1563 0.0100098H7.84265ZM9.81329 6.60793C11.8792 6.60793 13.1517 7.96417 13.191 9.74693C13.191 11.4903 11.8791 12.8847 9.77333 12.8847H9.73457C7.70797 12.8847 6.39809 11.4904 6.39809 9.74693C6.39809 7.96421 7.74761 6.60793 9.81325 6.60793H9.81329ZM27.6165 14.9403C31.5896 14.9403 34.5681 17.5372 34.5681 23.1178V33.5357H28.53V23.8163C28.53 21.3739 27.6561 19.7075 25.4709 19.7075C23.8028 19.7075 22.8084 20.8307 22.3719 21.9156C22.2124 22.3038 22.1732 22.8459 22.1732 23.3889V33.5357H16.1351C16.1351 33.5357 16.2143 17.0712 16.1351 15.3664H22.1744V17.9394C22.9768 16.7014 24.4121 14.9403 27.6165 14.9403V14.9403ZM6.75425 15.3677H12.7924V33.5358H6.75425V15.3677V15.3677Z" fill="#0088FF"/>
</svg>
