<svg version="1.1" id="Layer_1" xmlns="http://www.w3.org/2000/svg" xmlns:xlink="http://www.w3.org/1999/xlink" x="0px" y="0px"
	 width="100%" viewBox="0 0 474 106" enable-background="new 0 0 474 106" xml:space="preserve">
<path fill="#010101" opacity="1.000000" stroke="none" 
	d="
M98.000000,1.000000 
	C223.602859,1.000000 349.205719,1.000000 474.904297,1.000000 
	C474.904297,36.251362 474.904297,71.503067 474.904297,107.000000 
	C348.979218,107.000000 222.958267,107.000000 96.133713,106.740479 
	C105.437447,89.224121 115.604996,72.001663 125.522705,54.636513 
	C126.216721,53.421337 125.530174,50.882328 124.692375,49.410427 
	C116.263779,34.602509 107.646957,19.901833 99.163139,5.125034 
	C98.473289,3.923485 98.373810,2.382995 98.000000,1.000000 
M442.632843,39.091705 
	C439.461243,38.987675 439.660248,40.357845 441.266907,42.276348 
	C444.363037,45.973400 447.484406,49.649300 450.804382,53.581612 
	C447.053833,58.145206 443.357056,62.643383 439.446106,67.402161 
	C448.633759,70.238129 449.661926,61.247135 454.875916,58.559559 
	C456.869873,60.876961 459.032379,62.987103 460.704498,65.432541 
	C462.951935,68.719429 465.736023,68.288895 469.740204,67.463150 
	C465.624634,62.472763 461.986572,58.061405 458.329529,53.627026 
	C462.201324,48.934860 465.827301,44.540543 469.776947,39.754017 
	C460.368988,36.950211 459.416992,46.213593 454.186279,48.787163 
	C452.830078,47.157661 451.725616,45.431484 450.241394,44.142586 
	C448.109833,42.291595 445.701599,40.759228 442.632843,39.091705 
M248.762787,39.097775 
	C247.852325,39.892677 246.168076,40.670757 246.150360,41.485073 
	C245.959625,50.258190 246.031433,59.037014 246.031433,68.715263 
	C252.847168,66.383682 247.658279,60.386234 250.079117,58.039215 
	C258.320587,55.607956 263.893555,58.459232 268.100494,65.157784 
	C269.138885,66.811203 271.617310,67.560226 273.433746,68.725014 
	C273.778351,68.279518 274.122955,67.834015 274.467529,67.388519 
	C271.946991,64.309662 269.426453,61.230812 266.710632,57.913460 
	C274.910889,56.803173 275.141296,56.536564 275.148743,48.804871 
	C275.149536,47.973946 275.158600,47.142891 275.147278,46.312122 
	C275.067474,40.458706 273.717072,39.133877 267.670044,39.103470 
	C261.687561,39.073387 255.704788,39.096928 248.762787,39.097775 
M305.405792,39.806099 
	C297.973328,39.595261 290.527405,39.088509 283.119934,39.426056 
	C281.658112,39.492668 279.322449,42.720642 279.152832,44.646004 
	C278.629700,50.583733 278.936218,56.596741 278.967010,62.580265 
	C278.985718,66.214233 280.800629,68.092621 284.508789,68.078026 
	C290.492401,68.054482 296.476257,68.054581 302.459869,68.074577 
	C306.146729,68.086906 307.986328,66.293869 307.983612,62.602795 
	C307.979187,56.619091 308.101044,50.631363 307.898712,44.654499 
	C307.848297,43.165047 306.761871,41.710667 305.405792,39.806099 
M362.359375,39.072754 
	C355.790222,39.072754 349.221069,39.072754 342.725647,39.072754 
	C342.725647,49.157707 342.725647,58.519295 342.725647,67.764412 
	C351.693665,67.764412 360.263031,67.764412 368.832428,67.764412 
	C368.952850,66.796997 369.073273,65.829575 369.193665,64.862160 
	C361.679413,64.095718 353.938293,64.912079 346.189117,64.402267 
	C346.189117,61.478764 346.189117,58.718315 346.189117,55.584484 
	C351.489532,55.584484 356.608307,55.729294 361.705811,55.464611 
	C362.748993,55.410446 363.712494,53.821175 364.712708,52.939518 
	C364.375305,52.539906 364.037872,52.140289 363.700470,51.740677 
	C357.921234,51.740677 352.142029,51.740677 346.187500,51.740677 
	C346.187500,48.763756 346.187500,46.036331 346.187500,42.919239 
	C352.846558,42.919239 359.293915,42.967224 365.739990,42.898415 
	C368.830902,42.865421 368.829834,42.765339 368.209747,39.072754 
	C366.607422,39.072754 364.960052,39.072754 362.359375,39.072754 
M164.304123,51.175201 
	C161.514542,47.879593 158.913757,44.392540 155.851913,41.372997 
	C154.423264,39.964081 152.101898,39.460369 149.361847,38.153763 
	C149.361847,48.243202 149.280243,56.711697 149.466629,65.174294 
	C149.489563,66.214943 150.944366,67.224052 151.735626,68.247780 
	C152.240555,67.974083 152.745468,67.700386 153.250397,67.426689 
	C153.250397,59.752827 153.250397,52.078964 153.250397,43.788185 
	C159.630630,51.344616 165.385605,58.423931 171.482803,65.195091 
	C172.992065,66.871178 175.611633,67.547462 178.638184,69.177361 
	C178.638184,58.891228 178.714874,50.420128 178.545258,41.953960 
	C178.522995,40.842438 177.239548,39.756184 176.540222,38.658226 
	C175.958755,38.892567 175.377274,39.126904 174.795792,39.361240 
	C174.795792,47.151119 174.795792,54.941002 174.795792,63.614647 
	C170.979935,59.078136 167.879669,55.392357 164.304123,51.175201 
M188.629761,55.523933 
	C193.121765,55.520882 197.621277,55.656162 202.100189,55.412403 
	C203.150833,55.355221 204.131744,54.016239 205.144730,53.266968 
	C204.866348,52.785629 204.587952,52.304291 204.309570,51.822952 
	C198.389038,51.822952 192.468521,51.822952 186.430603,51.822952 
	C186.430603,48.664860 186.430603,45.937138 186.430603,42.877213 
	C193.139648,42.877213 199.603714,42.987473 206.057068,42.774357 
	C207.202606,42.736523 208.303726,41.353542 209.425339,40.591709 
	C209.159744,40.165337 208.894135,39.738960 208.628540,39.312584 
	C200.214005,39.312584 191.799454,39.312584 183.124573,39.312584 
	C183.124573,48.885513 183.124573,58.260422 183.124573,67.761124 
	C191.846893,67.761124 200.380493,67.761124 208.914093,67.761124 
	C209.019669,66.966469 209.125229,66.171814 209.230789,65.377159 
	C201.898132,63.470116 193.971207,65.469559 185.571976,64.152428 
	C186.310852,61.114296 186.986481,58.336189 188.629761,55.523933 
M216.798996,57.485798 
	C216.798630,52.330353 216.929291,47.168823 216.690247,42.024460 
	C216.640869,40.961857 215.215118,39.963203 214.423706,38.935074 
	C213.975189,39.222824 213.526672,39.510578 213.078156,39.798328 
	C213.078156,47.432663 213.047180,55.067181 213.092453,62.701248 
	C213.112350,66.057991 214.772186,68.015251 218.262619,68.034431 
	C224.581940,68.069168 230.923187,68.334251 237.206680,67.859741 
	C238.896454,67.732124 241.710617,65.354805 241.790543,63.889233 
	C242.238068,55.683319 242.005951,47.440342 242.005951,39.210022 
	C241.330933,39.062931 240.655930,38.915840 239.980911,38.768749 
	C239.517670,40.151249 238.680817,41.526562 238.654053,42.917461 
	C238.517792,49.996979 238.591187,57.080528 238.591187,64.228378 
	C230.935486,64.228378 224.067215,64.228378 216.798996,64.228378 
	C216.798996,62.073341 216.798996,60.277691 216.798996,57.485798 
M390.477356,39.102818 
	C386.479004,39.103722 382.479797,39.053970 378.482574,39.121330 
	C375.206146,39.176548 373.028595,40.652695 372.991943,44.185360 
	C372.926331,50.515369 372.652130,56.874058 373.186707,63.159382 
	C373.334351,64.895210 375.953979,67.713425 377.575134,67.812439 
	C385.519043,68.297623 393.508820,68.032448 401.482361,68.032448 
	C401.722321,67.530319 401.962250,67.028183 402.202179,66.526054 
	C401.124786,65.882538 400.063904,64.717430 398.967163,64.682655 
	C393.142120,64.497971 387.299744,64.408249 381.480133,64.665451 
	C377.753174,64.830185 375.904999,64.039154 376.287964,59.777302 
	C376.674072,55.480446 376.544159,51.112785 376.315369,46.793358 
	C376.151764,43.704109 377.238922,42.729530 380.291748,42.828709 
	C386.449402,43.028767 392.622070,43.002689 398.778625,42.786591 
	C399.932465,42.746098 401.039948,41.384010 402.168854,40.631802 
	C401.904907,40.122139 401.640991,39.612480 401.377075,39.102818 
	C398.071716,39.102818 394.766357,39.102818 390.477356,39.102818 
M409.191284,58.609203 
	C410.042114,57.570705 410.859558,55.666191 411.749115,55.631889 
	C418.356171,55.377110 424.977539,55.493706 431.960815,55.493706 
	C431.960815,59.068565 431.821503,62.214657 432.046387,65.334511 
	C432.113129,66.260132 433.204498,67.111893 433.826355,67.997475 
	C434.327759,67.145271 435.252258,66.299164 435.264618,65.439919 
	C435.377411,57.608852 435.391998,49.774410 435.252045,41.944225 
	C435.235260,41.004639 434.127686,40.084545 433.525635,39.155418 
	C433.004211,40.164005 432.099915,41.147984 432.033234,42.185795 
	C431.833527,45.293339 431.961395,48.421932 431.961395,51.559525 
	C424.126251,51.559525 416.756683,51.559525 409.182251,51.559525 
	C409.182251,47.876785 409.267883,44.552994 409.114410,41.240276 
	C409.081299,40.525684 408.186554,39.851009 407.688660,39.157932 
	C407.051788,39.872066 405.871277,40.578308 405.860779,41.301548 
	C405.733276,50.087570 405.778046,58.876095 405.778046,67.663971 
	C406.220642,67.922928 406.663239,68.181892 407.105835,68.440849 
	C407.799652,67.487381 408.922363,66.605049 409.094849,65.565094 
	C409.417664,63.618607 409.189789,61.580769 409.191284,58.609203 
M323.513184,39.062069 
	C320.184082,39.062229 316.834045,38.851101 313.537292,39.177692 
	C312.390747,39.291279 311.376007,40.735100 310.301056,41.571373 
	C310.606018,42.061264 310.910980,42.551155 311.215942,43.041046 
	C315.139923,43.041046 319.063873,43.041046 323.271240,43.041046 
	C323.271240,50.571445 323.170685,57.699566 323.367188,64.819473 
	C323.401184,66.050774 324.694092,67.247322 325.405487,68.459930 
	C325.973480,68.228317 326.541504,67.996712 327.109497,67.765106 
	C327.109497,59.535385 327.109497,51.305668 327.109497,42.929474 
	C330.788025,42.929474 333.950958,43.079220 337.083771,42.838173 
	C338.022888,42.765915 338.878143,41.603279 339.771820,40.940174 
	C338.844025,40.314205 337.940002,39.193718 336.984344,39.147812 
	C332.832550,38.948368 328.665710,39.062134 323.513184,39.062069 
z"/>
<path fill="#FAFAFA" opacity="1.000000" stroke="none" 
	d="
M97.531342,1.000000 
	C98.373810,2.382995 98.473289,3.923485 99.163139,5.125034 
	C107.646957,19.901833 116.263779,34.602509 124.692375,49.410427 
	C125.530174,50.882328 126.216721,53.421337 125.522705,54.636513 
	C115.604996,72.001663 105.437447,89.224121 95.665054,106.740479 
	C75.979103,107.000000 55.958210,107.000000 35.817673,106.751350 
	C25.811924,89.501495 15.862824,72.536049 6.154087,55.434158 
	C5.338926,53.998253 5.456641,51.260078 6.293845,49.778313 
	C14.673881,34.946507 23.323275,20.267126 31.801464,5.490113 
	C32.546459,4.191628 32.616474,2.505877 33.000000,1.000000 
	C54.354229,1.000000 75.708458,1.000000 97.531342,1.000000 
M106.640755,41.868782 
	C101.803200,33.552620 96.985008,25.225098 92.116165,16.927294 
	C90.676643,14.473976 89.933456,11.676445 85.802643,11.766815 
	C81.938225,11.851357 81.246986,14.448030 79.894936,16.750147 
	C75.167068,24.800200 70.504982,32.888885 65.575943,41.379707 
	C60.287102,32.282120 55.368969,23.822067 50.450699,15.362091 
	C47.580864,10.425655 42.866325,10.353282 40.018177,15.233508 
	C33.413445,26.550535 26.900835,37.922165 20.192179,49.177067 
	C18.647058,51.769260 18.654156,53.754150 20.222401,56.371647 
	C26.869862,67.466667 33.278530,78.704651 39.786747,89.883240 
	C43.112846,95.596176 47.370842,95.575104 50.724312,89.820457 
	C55.595768,81.460907 60.440357,73.085701 65.590698,64.210007 
	C70.963615,73.457161 75.938171,82.059273 80.955154,90.636566 
	C83.551643,95.075668 88.359253,95.151382 90.889664,90.813560 
	C96.237907,81.645195 101.040535,72.102287 107.056595,63.396923 
	C112.190834,55.967564 113.324203,49.465214 106.640755,41.868782 
z"/>
<path fill="#010101" opacity="1.000000" stroke="none" 
	d="
M32.531342,1.000000 
	C32.616474,2.505877 32.546459,4.191628 31.801464,5.490113 
	C23.323275,20.267126 14.673881,34.946507 6.293845,49.778313 
	C5.456641,51.260078 5.338926,53.998253 6.154087,55.434158 
	C15.862824,72.536049 25.811924,89.501495 35.349014,106.751350 
	C23.695566,107.000000 12.391132,107.000000 1.043349,107.000000 
	C1.043349,71.785706 1.043349,36.571350 1.043349,1.000000 
	C11.351493,1.000000 21.707088,1.000000 32.531342,1.000000 
z"/>
<path fill="#22ABBE" opacity="1.000000" stroke="none" 
	d="
M443.022156,39.091278 
	C445.701599,40.759228 448.109833,42.291595 450.241394,44.142586 
	C451.725616,45.431484 452.830078,47.157661 454.186279,48.787163 
	C459.416992,46.213593 460.368988,36.950211 469.776947,39.754017 
	C465.827301,44.540543 462.201324,48.934860 458.329529,53.627026 
	C461.986572,58.061405 465.624634,62.472763 469.740204,67.463150 
	C465.736023,68.288895 462.951935,68.719429 460.704498,65.432541 
	C459.032379,62.987103 456.869873,60.876961 454.875916,58.559559 
	C449.661926,61.247135 448.633759,70.238129 439.446106,67.402161 
	C443.357056,62.643383 447.053833,58.145206 450.804382,53.581612 
	C447.484406,49.649300 444.363037,45.973400 441.266907,42.276348 
	C439.660248,40.357845 439.461243,38.987675 443.022156,39.091278 
z"/>
<path fill="#ECECEC" opacity="1.000000" stroke="none" 
	d="
M249.242462,39.097359 
	C255.704788,39.096928 261.687561,39.073387 267.670044,39.103470 
	C273.717072,39.133877 275.067474,40.458706 275.147278,46.312122 
	C275.158600,47.142891 275.149536,47.973946 275.148743,48.804871 
	C275.141296,56.536564 274.910889,56.803173 266.710632,57.913460 
	C269.426453,61.230812 271.946991,64.309662 274.467529,67.388519 
	C274.122955,67.834015 273.778351,68.279518 273.433746,68.725014 
	C271.617310,67.560226 269.138885,66.811203 268.100494,65.157784 
	C263.893555,58.459232 258.320587,55.607956 250.079117,58.039215 
	C247.658279,60.386234 252.847168,66.383682 246.031433,68.715263 
	C246.031433,59.037014 245.959625,50.258190 246.150360,41.485073 
	C246.168076,40.670757 247.852325,39.892677 249.242462,39.097359 
M251.733139,53.963799 
	C256.380554,53.966137 261.027985,53.970406 265.675415,53.970306 
	C270.973663,53.970192 273.918335,49.001770 271.362213,44.185398 
	C271.012726,43.526882 269.831085,42.962002 269.025116,42.948997 
	C262.769653,42.848053 256.511810,42.893272 249.364960,42.893272 
	C249.886978,46.954597 250.331955,50.416553 251.733139,53.963799 
z"/>
<path fill="#E6E6E6" opacity="1.000000" stroke="none" 
	d="
M305.778717,40.023132 
	C306.761871,41.710667 307.848297,43.165047 307.898712,44.654499 
	C308.101044,50.631363 307.979187,56.619091 307.983612,62.602795 
	C307.986328,66.293869 306.146729,68.086906 302.459869,68.074577 
	C296.476257,68.054581 290.492401,68.054482 284.508789,68.078026 
	C280.800629,68.092621 278.985718,66.214233 278.967010,62.580265 
	C278.936218,56.596741 278.629700,50.583733 279.152832,44.646004 
	C279.322449,42.720642 281.658112,39.492668 283.119934,39.426056 
	C290.527405,39.088509 297.973328,39.595261 305.778717,40.023132 
M300.407349,42.901115 
	C294.653412,42.901115 288.899475,42.901115 282.953796,42.901115 
	C282.953796,50.309631 282.953796,57.178009 282.953796,64.259666 
	C290.119263,64.259666 296.972992,64.259666 304.338074,64.259666 
	C304.338074,57.685089 304.441803,51.418774 304.207886,45.165089 
	C304.178375,44.376732 302.373535,43.654789 300.407349,42.901115 
z"/>
<path fill="#E3E3E3" opacity="1.000000" stroke="none" 
	d="
M362.836029,39.072754 
	C364.960052,39.072754 366.607422,39.072754 368.209747,39.072754 
	C368.829834,42.765339 368.830902,42.865421 365.739990,42.898415 
	C359.293915,42.967224 352.846558,42.919239 346.187500,42.919239 
	C346.187500,46.036331 346.187500,48.763756 346.187500,51.740677 
	C352.142029,51.740677 357.921234,51.740677 363.700470,51.740677 
	C364.037872,52.140289 364.375305,52.539906 364.712708,52.939518 
	C363.712494,53.821175 362.748993,55.410446 361.705811,55.464611 
	C356.608307,55.729294 351.489532,55.584484 346.189117,55.584484 
	C346.189117,58.718315 346.189117,61.478764 346.189117,64.402267 
	C353.938293,64.912079 361.679413,64.095718 369.193665,64.862160 
	C369.073273,65.829575 368.952850,66.796997 368.832428,67.764412 
	C360.263031,67.764412 351.693665,67.764412 342.725647,67.764412 
	C342.725647,58.519295 342.725647,49.157707 342.725647,39.072754 
	C349.221069,39.072754 355.790222,39.072754 362.836029,39.072754 
z"/>
<path fill="#E1E1E1" opacity="1.000000" stroke="none" 
	d="
M164.541763,51.440891 
	C167.879669,55.392357 170.979935,59.078136 174.795792,63.614647 
	C174.795792,54.941002 174.795792,47.151119 174.795792,39.361240 
	C175.377274,39.126904 175.958755,38.892567 176.540222,38.658226 
	C177.239548,39.756184 178.522995,40.842438 178.545258,41.953960 
	C178.714874,50.420128 178.638184,58.891228 178.638184,69.177361 
	C175.611633,67.547462 172.992065,66.871178 171.482803,65.195091 
	C165.385605,58.423931 159.630630,51.344616 153.250397,43.788185 
	C153.250397,52.078964 153.250397,59.752827 153.250397,67.426689 
	C152.745468,67.700386 152.240555,67.974083 151.735626,68.247780 
	C150.944366,67.224052 149.489563,66.214943 149.466629,65.174294 
	C149.280243,56.711697 149.361847,48.243202 149.361847,38.153763 
	C152.101898,39.460369 154.423264,39.964081 155.851913,41.372997 
	C158.913757,44.392540 161.514542,47.879593 164.541763,51.440891 
z"/>
<path fill="#F3F3F3" opacity="1.000000" stroke="none" 
	d="
M188.145935,55.541008 
	C186.986481,58.336189 186.310852,61.114296 185.571976,64.152428 
	C193.971207,65.469559 201.898132,63.470116 209.230789,65.377159 
	C209.125229,66.171814 209.019669,66.966469 208.914093,67.761124 
	C200.380493,67.761124 191.846893,67.761124 183.124573,67.761124 
	C183.124573,58.260422 183.124573,48.885513 183.124573,39.312584 
	C191.799454,39.312584 200.214005,39.312584 208.628540,39.312584 
	C208.894135,39.738960 209.159744,40.165337 209.425339,40.591709 
	C208.303726,41.353542 207.202606,42.736523 206.057068,42.774357 
	C199.603714,42.987473 193.139648,42.877213 186.430603,42.877213 
	C186.430603,45.937138 186.430603,48.664860 186.430603,51.822952 
	C192.468521,51.822952 198.389038,51.822952 204.309570,51.822952 
	C204.587952,52.304291 204.866348,52.785629 205.144730,53.266968 
	C204.131744,54.016239 203.150833,55.355221 202.100189,55.412403 
	C197.621277,55.656162 193.121765,55.520882 188.145935,55.541008 
z"/>
<path fill="#EDEDED" opacity="1.000000" stroke="none" 
	d="
M216.798996,57.983917 
	C216.798996,60.277691 216.798996,62.073341 216.798996,64.228378 
	C224.067215,64.228378 230.935486,64.228378 238.591187,64.228378 
	C238.591187,57.080528 238.517792,49.996979 238.654053,42.917461 
	C238.680817,41.526562 239.517670,40.151249 239.980911,38.768749 
	C240.655930,38.915840 241.330933,39.062931 242.005951,39.210022 
	C242.005951,47.440342 242.238068,55.683319 241.790543,63.889233 
	C241.710617,65.354805 238.896454,67.732124 237.206680,67.859741 
	C230.923187,68.334251 224.581940,68.069168 218.262619,68.034431 
	C214.772186,68.015251 213.112350,66.057991 213.092453,62.701248 
	C213.047180,55.067181 213.078156,47.432663 213.078156,39.798328 
	C213.526672,39.510578 213.975189,39.222824 214.423706,38.935074 
	C215.215118,39.963203 216.640869,40.961857 216.690247,42.024460 
	C216.929291,47.168823 216.798630,52.330353 216.798996,57.983917 
z"/>
<path fill="#EFEFEF" opacity="1.000000" stroke="none" 
	d="
M390.969177,39.102818 
	C394.766357,39.102818 398.071716,39.102818 401.377075,39.102818 
	C401.640991,39.612480 401.904907,40.122139 402.168854,40.631802 
	C401.039948,41.384010 399.932465,42.746098 398.778625,42.786591 
	C392.622070,43.002689 386.449402,43.028767 380.291748,42.828709 
	C377.238922,42.729530 376.151764,43.704109 376.315369,46.793358 
	C376.544159,51.112785 376.674072,55.480446 376.287964,59.777302 
	C375.904999,64.039154 377.753174,64.830185 381.480133,64.665451 
	C387.299744,64.408249 393.142120,64.497971 398.967163,64.682655 
	C400.063904,64.717430 401.124786,65.882538 402.202179,66.526054 
	C401.962250,67.028183 401.722321,67.530319 401.482361,68.032448 
	C393.508820,68.032448 385.519043,68.297623 377.575134,67.812439 
	C375.953979,67.713425 373.334351,64.895210 373.186707,63.159382 
	C372.652130,56.874058 372.926331,50.515369 372.991943,44.185360 
	C373.028595,40.652695 375.206146,39.176548 378.482574,39.121330 
	C382.479797,39.053970 386.479004,39.103722 390.969177,39.102818 
z"/>
<path fill="#FAFAFA" opacity="1.000000" stroke="none" 
	d="
M409.191162,59.095070 
	C409.189789,61.580769 409.417664,63.618607 409.094849,65.565094 
	C408.922363,66.605049 407.799652,67.487381 407.105835,68.440849 
	C406.663239,68.181892 406.220642,67.922928 405.778046,67.663971 
	C405.778046,58.876095 405.733276,50.087570 405.860779,41.301548 
	C405.871277,40.578308 407.051788,39.872066 407.688660,39.157940 
	C408.186554,39.851009 409.081299,40.525684 409.114410,41.240276 
	C409.267883,44.552994 409.182251,47.876785 409.182251,51.559525 
	C416.756683,51.559525 424.126251,51.559525 431.961395,51.559525 
	C431.961395,48.421932 431.833527,45.293339 432.033234,42.185795 
	C432.099915,41.147984 433.004211,40.164005 433.525635,39.155418 
	C434.127686,40.084545 435.235260,41.004639 435.252045,41.944225 
	C435.391998,49.774410 435.377411,57.608852 435.264618,65.439919 
	C435.252258,66.299164 434.327759,67.145271 433.826355,67.997482 
	C433.204498,67.111893 432.113129,66.260132 432.046387,65.334511 
	C431.821503,62.214657 431.960815,59.068565 431.960815,55.493706 
	C424.977539,55.493706 418.356171,55.377110 411.749115,55.631889 
	C410.859558,55.666191 410.042114,57.570705 409.191162,59.095070 
z"/>
<path fill="#DEDEDE" opacity="1.000000" stroke="none" 
	d="
M324.008759,39.062069 
	C328.665710,39.062134 332.832550,38.948368 336.984344,39.147812 
	C337.940002,39.193718 338.844025,40.314205 339.771820,40.940178 
	C338.878143,41.603279 338.022888,42.765915 337.083771,42.838173 
	C333.950958,43.079220 330.788025,42.929474 327.109497,42.929474 
	C327.109497,51.305668 327.109497,59.535385 327.109497,67.765106 
	C326.541504,67.996712 325.973480,68.228317 325.405487,68.459930 
	C324.694092,67.247322 323.401184,66.050774 323.367188,64.819473 
	C323.170685,57.699566 323.271240,50.571445 323.271240,43.041046 
	C319.063873,43.041046 315.139923,43.041046 311.215942,43.041046 
	C310.910980,42.551155 310.606018,42.061264 310.301056,41.571373 
	C311.376007,40.735100 312.390747,39.291279 313.537292,39.177692 
	C316.834045,38.851101 320.184082,39.062229 324.008759,39.062069 
z"/>
<path fill="#040404" opacity="1.000000" stroke="none" 
	d="
M106.824677,42.186066 
	C113.324203,49.465214 112.190834,55.967564 107.056595,63.396923 
	C101.040535,72.102287 96.237907,81.645195 90.889664,90.813560 
	C88.359253,95.151382 83.551643,95.075668 80.955154,90.636566 
	C75.938171,82.059273 70.963615,73.457161 65.590698,64.210007 
	C60.440357,73.085701 55.595768,81.460907 50.724312,89.820457 
	C47.370842,95.575104 43.112846,95.596176 39.786747,89.883240 
	C33.278530,78.704651 26.869862,67.466667 20.222401,56.371647 
	C18.654156,53.754150 18.647058,51.769260 20.192179,49.177067 
	C26.900835,37.922165 33.413445,26.550535 40.018177,15.233508 
	C42.866325,10.353282 47.580864,10.425655 50.450699,15.362091 
	C55.368969,23.822067 60.287102,32.282120 65.575943,41.379707 
	C70.504982,32.888885 75.167068,24.800200 79.894936,16.750147 
	C81.246986,14.448030 81.938225,11.851357 85.802643,11.766815 
	C89.933456,11.676445 90.676643,14.473976 92.116165,16.927294 
	C96.985008,25.225098 101.803200,33.552620 106.824677,42.186066 
M82.219269,70.253822 
	C83.391998,72.145065 84.564735,74.036316 86.001999,76.354164 
	C90.410721,68.793472 94.513100,61.807610 98.541756,54.779491 
	C98.988007,54.000996 99.495148,52.712029 99.161003,52.114346 
	C94.927719,44.542324 90.545326,37.053669 85.919640,29.057501 
	C81.044914,37.472019 76.641251,45.073402 72.172997,52.786285 
	C75.432053,58.399441 78.678810,63.991405 82.219269,70.253822 
M39.475346,38.962234 
	C37.324329,42.690098 35.113510,46.385494 33.060516,50.166576 
	C32.481388,51.233177 31.705896,52.914124 32.137760,53.696793 
	C36.298569,61.237415 40.698307,68.646194 45.261242,76.490776 
	C49.590961,69.021004 53.536091,62.322781 57.340412,55.545528 
	C57.978016,54.409653 58.691383,52.556015 58.206806,51.670185 
	C54.145550,44.245964 49.812634,36.970345 45.518833,29.576380 
	C44.786350,30.160538 44.440414,30.312836 44.288410,30.576807 
	C42.802555,33.157185 41.349056,35.756195 39.475346,38.962234 
z"/>
<path fill="#040404" opacity="1.000000" stroke="none" 
	d="
M251.255035,53.921158 
	C250.331955,50.416553 249.886978,46.954597 249.364960,42.893272 
	C256.511810,42.893272 262.769653,42.848053 269.025116,42.948997 
	C269.831085,42.962002 271.012726,43.526882 271.362213,44.185398 
	C273.918335,49.001770 270.973663,53.970192 265.675415,53.970306 
	C261.027985,53.970406 256.380554,53.966137 251.255035,53.921158 
z"/>
<path fill="#050505" opacity="1.000000" stroke="none" 
	d="
M300.899292,42.901596 
	C302.373535,43.654789 304.178375,44.376732 304.207886,45.165089 
	C304.441803,51.418774 304.338074,57.685089 304.338074,64.259666 
	C296.972992,64.259666 290.119263,64.259666 282.953796,64.259666 
	C282.953796,57.178009 282.953796,50.309631 282.953796,42.901115 
	C288.899475,42.901115 294.653412,42.901115 300.899292,42.901596 
z"/>
<path fill="#FAFAFA" opacity="1.000000" stroke="none" 
	d="
M82.072418,69.918594 
	C78.678810,63.991405 75.432053,58.399441 72.172997,52.786285 
	C76.641251,45.073402 81.044914,37.472019 85.919640,29.057501 
	C90.545326,37.053669 94.927719,44.542324 99.161003,52.114346 
	C99.495148,52.712029 98.988007,54.000996 98.541756,54.779491 
	C94.513100,61.807610 90.410721,68.793472 86.001999,76.354164 
	C84.564735,74.036316 83.391998,72.145065 82.072418,69.918594 
z"/>
<path fill="#FAFAFA" opacity="1.000000" stroke="none" 
	d="
M39.680847,38.656067 
	C41.349056,35.756195 42.802555,33.157185 44.288410,30.576807 
	C44.440414,30.312836 44.786350,30.160538 45.518833,29.576380 
	C49.812634,36.970345 54.145550,44.245964 58.206806,51.670185 
	C58.691383,52.556015 57.978016,54.409653 57.340412,55.545528 
	C53.536091,62.322781 49.590961,69.021004 45.261242,76.490776 
	C40.698307,68.646194 36.298569,61.237415 32.137760,53.696793 
	C31.705896,52.914124 32.481388,51.233177 33.060516,50.166576 
	C35.113510,46.385494 37.324329,42.690098 39.680847,38.656067 
z"/>
</svg>