<svg width="192" height="182" viewBox="0 0 192 182" fill="none" xmlns="http://www.w3.org/2000/svg">
<path d="M96 6C51.816 6 16 41.816 16 86C16 130.184 51.816 166 96 166C140.184 166 176 130.184 176 86C176 41.816 140.184 6 96 6Z" stroke="black" stroke-width="1.5" stroke-linecap="round" stroke-linejoin="round"/>
<path d="M34.168 136.768C34.168 136.768 52 114 96 114C140 114 157.84 136.768 157.84 136.768M96 86C102.365 86 108.47 83.4714 112.971 78.9706C117.471 74.4697 120 68.3652 120 62C120 55.6348 117.471 49.5303 112.971 45.0294C108.47 40.5286 102.365 38 96 38C89.6348 38 83.5303 40.5286 79.0294 45.0294C74.5285 49.5303 72 55.6348 72 62C72 68.3652 74.5285 74.4697 79.0294 78.9706C83.5303 83.4714 89.6348 86 96 86V86Z" stroke="black" stroke-width="1.5" stroke-linecap="round" stroke-linejoin="round"/>
</svg>
