<svg version="1.1" id="Layer_1" xmlns="http://www.w3.org/2000/svg" xmlns:xlink="http://www.w3.org/1999/xlink" x="0px" y="0px"
	 width="100%" viewBox="0 0 476 451" enable-background="new 0 0 476 451" xml:space="preserve">
<path fill="#FDFDFD" opacity="1.000000" stroke="none" 
	d="
M303.000000,1.000000 
	C360.986389,1.000000 418.972748,1.000000 476.979553,1.000000 
	C476.979553,151.284393 476.979553,301.568787 476.979553,451.926575 
	C318.419586,451.926575 159.839096,451.926575 1.129313,451.926575 
	C1.129313,301.788300 1.129313,151.576431 1.129313,1.000000 
	C95.688995,1.000000 190.378464,1.000000 285.457397,1.401491 
	C283.147491,2.798178 280.443054,3.779891 277.749573,4.790743 
	C259.115265,11.784090 250.233444,26.317017 247.199219,45.032837 
	C245.985611,52.518585 248.397583,59.670898 250.839005,66.746063 
	C256.082764,81.942451 274.449249,96.032349 290.455811,96.926674 
	C298.180450,97.358276 305.545959,96.182899 312.786255,93.283585 
	C329.782227,86.477669 339.282227,73.456978 342.692596,56.159443 
	C344.769501,45.625259 342.543213,35.017220 336.936279,25.751040 
	C329.609924,13.643296 319.663208,4.669836 304.862366,2.649169 
	C304.179230,2.555907 303.618011,1.570109 303.000000,1.000000 
M186.339767,117.353104 
	C185.849350,118.378220 185.358948,119.403343 184.583420,121.024429 
	C189.360962,121.024429 193.266418,120.877121 197.149323,121.108246 
	C198.424301,121.184135 199.640900,122.241104 200.057343,122.910957 
	C195.649734,124.198364 191.255295,125.533165 186.831802,126.763466 
	C177.153229,129.455383 167.453445,132.070984 157.774292,134.760880 
	C146.364807,137.931656 140.673309,144.815933 138.911545,156.444061 
	C137.907288,163.072220 136.240936,169.618622 134.561462,176.121445 
	C132.210800,185.223038 129.415344,194.210342 127.096725,203.319473 
	C124.791748,212.374939 123.360817,221.684143 120.563881,230.572830 
	C118.486320,237.175369 118.079338,243.242233 121.039574,249.464630 
	C124.123108,255.946167 129.485992,259.803314 136.326477,260.886932 
	C144.604980,262.198303 152.125198,259.930267 157.075577,252.722687 
	C163.455338,243.434052 163.581604,231.994858 166.904205,221.639664 
	C168.906570,215.399033 169.736877,208.792603 171.413223,202.434738 
	C173.991638,192.655762 176.844559,182.949173 179.690903,172.820816 
	C190.891357,170.486908 201.775177,165.500885 213.738617,165.200272 
	C208.120987,168.978958 202.230499,171.919205 196.513367,175.164825 
	C194.463928,176.328293 191.824966,177.904861 191.199112,179.853149 
	C189.296463,185.776016 188.314774,191.989319 186.836227,198.055832 
	C185.957840,201.659836 184.760468,205.184860 183.810471,208.772919 
	C182.234604,214.724731 180.742508,220.698730 179.180634,226.798096 
	C182.940491,226.798096 186.267319,226.964417 189.572952,226.770035 
	C206.120789,225.796921 222.372452,227.448532 237.931732,233.244247 
	C254.037781,239.243607 268.404175,248.358902 280.645416,260.419342 
	C301.728333,281.190857 313.388397,306.731201 316.609192,335.965668 
	C318.003601,348.622772 316.766113,361.280243 313.322540,373.720459 
	C312.426147,376.958862 313.302734,380.931915 314.177399,384.360260 
	C315.527435,389.651764 318.075256,394.418304 322.627045,397.874268 
	C323.163208,398.281403 322.966797,399.653412 323.135742,400.744598 
	C321.338104,400.744598 319.815033,400.929779 318.350830,400.714539 
	C308.948029,399.332367 301.526886,401.090607 297.146149,410.963135 
	C294.645599,416.598419 290.227448,421.382843 286.524353,426.766083 
	C287.521484,426.974915 287.993134,427.160065 288.464844,427.160187 
	C316.964294,427.166534 345.464813,427.021667 373.962341,427.252899 
	C380.490662,427.305847 386.150787,419.870483 386.662811,414.111633 
	C387.238617,407.635895 380.526184,400.884033 373.782654,400.771301 
	C367.623016,400.668304 361.460327,400.749451 354.479156,400.749451 
	C355.290222,399.296143 355.639435,398.067810 356.440735,397.331238 
	C362.168732,392.065643 365.730927,385.613098 364.881439,377.844696 
	C364.155945,371.210541 362.340027,364.646942 360.507843,358.193665 
	C357.588562,347.911377 354.123901,337.784882 351.133881,327.521423 
	C348.192963,317.426422 345.735992,307.189301 342.739563,297.111847 
	C339.053619,284.715454 334.387939,272.575195 331.347687,260.032867 
	C328.787750,249.471924 316.791290,240.546753 305.848022,240.921677 
	C295.360443,241.280991 284.850861,241.012314 274.351044,240.986237 
	C272.623749,240.981949 270.896851,240.805832 269.157867,240.708481 
	C271.233276,234.756424 272.995392,229.181137 275.140900,223.757523 
	C276.314362,220.791214 277.499023,216.446808 279.782715,215.556778 
	C287.170990,212.677322 295.072205,211.115982 302.772217,209.033661 
	C308.478119,207.490616 314.193787,205.980682 319.877716,204.360001 
	C328.294373,201.960068 336.685669,199.471344 345.089844,197.027512 
	C352.573914,194.851227 360.075470,192.739334 364.317322,185.240936 
	C368.399384,178.025009 368.600281,170.312729 364.581299,163.515762 
	C360.838959,157.186584 354.849335,152.163589 346.693298,153.061874 
	C339.694214,153.832718 332.766571,155.587738 325.927216,157.368011 
	C320.417053,158.802292 315.133240,161.086243 309.659576,162.687317 
	C305.668793,163.854614 301.532318,164.523865 297.062805,165.502274 
	C298.608887,159.765274 299.634521,154.634796 301.381714,149.763092 
	C304.610413,140.760483 301.543213,132.820389 297.791351,124.970581 
	C292.303802,113.489235 281.558289,109.003555 270.538086,105.073212 
	C260.408020,101.460327 249.948975,98.657425 240.082748,94.447937 
	C229.828308,90.072800 219.830353,89.215546 209.358887,92.779572 
	C197.526337,96.806854 190.706451,105.460754 186.339767,117.353104 
M116.658989,279.088715 
	C109.705078,287.292755 104.042305,296.203033 100.164650,306.345764 
	C96.636002,315.575592 93.137383,324.741760 92.933525,334.745392 
	C92.769699,342.784332 92.643204,350.842072 93.018906,358.867218 
	C93.245773,363.713074 93.844749,368.716736 95.355247,373.293457 
	C99.414688,385.593353 104.597694,397.238007 112.458275,407.908051 
	C132.384171,434.955688 159.332947,448.268707 192.147095,450.897552 
	C202.483612,451.725616 212.570877,449.668304 222.657730,447.328308 
	C235.282928,444.399445 246.440536,438.801056 257.015381,431.471283 
	C282.043427,414.123688 295.846405,389.710144 300.510559,360.332642 
	C303.276611,342.910706 301.215607,325.238983 294.504150,308.711884 
	C287.714874,291.993195 277.594849,277.606140 263.459351,265.839996 
	C242.983063,248.795837 219.382843,241.678482 193.302872,241.354553 
	C189.061310,241.301849 184.764359,243.046143 180.567215,242.781799 
	C175.750183,242.478439 174.121887,245.397003 173.343246,248.733994 
	C171.067276,258.487823 165.298630,265.644470 156.805405,270.131195 
	C150.198166,273.621643 142.768890,276.701813 135.077789,274.121613 
	C124.550758,270.590057 124.662552,270.253754 117.117958,277.961334 
	C117.025887,278.055420 117.070633,278.283417 116.658989,279.088715 
M131.251404,138.323563 
	C130.499161,133.853134 130.177780,129.255722 128.905426,124.938583 
	C126.214958,115.809746 123.063736,106.815239 120.033943,97.788315 
	C117.097656,89.040024 113.674164,80.431435 111.219902,71.552719 
	C109.243759,64.403732 100.372253,55.064640 89.563965,58.504181 
	C77.425644,62.366985 75.359924,73.069061 77.436363,80.901604 
	C79.237862,87.697014 82.235443,94.171547 84.499985,100.857140 
	C84.639580,101.269272 83.085266,102.741135 82.152435,102.940605 
	C79.202087,103.571457 75.633224,102.950027 73.270935,104.394707 
	C64.931190,109.494980 64.175865,114.502007 67.285233,124.220093 
	C70.785904,135.161224 75.075409,145.847824 78.696228,156.753235 
	C82.392921,167.887161 85.595772,179.184097 89.193939,190.351959 
	C93.720947,204.402710 98.395531,218.406448 103.130852,232.388351 
	C103.476982,233.410370 104.830803,234.091141 105.540337,234.763885 
	C108.013649,225.791748 110.385941,217.457809 112.594963,209.080795 
	C114.168236,203.114639 116.775665,197.061844 116.639290,191.099930 
	C116.486893,184.437576 113.955185,177.777588 112.089104,171.221848 
	C110.385048,165.235336 108.186722,159.389526 106.093864,153.146530 
	C110.355751,153.146530 113.651909,153.248795 116.939590,153.125443 
	C124.015915,152.859924 130.539612,146.430573 131.251404,138.323563 
z"/>
<path fill="#020202" opacity="1.000000" stroke="none" 
	d="
M302.532410,1.000000 
	C303.618011,1.570109 304.179230,2.555907 304.862366,2.649169 
	C319.663208,4.669836 329.609924,13.643296 336.936279,25.751040 
	C342.543213,35.017220 344.769501,45.625259 342.692596,56.159443 
	C339.282227,73.456978 329.782227,86.477669 312.786255,93.283585 
	C305.545959,96.182899 298.180450,97.358276 290.455811,96.926674 
	C274.449249,96.032349 256.082764,81.942451 250.839005,66.746063 
	C248.397583,59.670898 245.985611,52.518585 247.199219,45.032837 
	C250.233444,26.317017 259.115265,11.784090 277.749573,4.790743 
	C280.443054,3.779891 283.147491,2.798178 285.923431,1.401491 
	C291.354919,1.000000 296.709869,1.000000 302.532410,1.000000 
z"/>
<path fill="#020202" opacity="1.000000" stroke="none" 
	d="
M186.968842,116.973198 
	C190.706451,105.460754 197.526337,96.806854 209.358887,92.779572 
	C219.830353,89.215546 229.828308,90.072800 240.082748,94.447937 
	C249.948975,98.657425 260.408020,101.460327 270.538086,105.073212 
	C281.558289,109.003555 292.303802,113.489235 297.791351,124.970581 
	C301.543213,132.820389 304.610413,140.760483 301.381714,149.763092 
	C299.634521,154.634796 298.608887,159.765274 297.062805,165.502274 
	C301.532318,164.523865 305.668793,163.854614 309.659576,162.687317 
	C315.133240,161.086243 320.417053,158.802292 325.927216,157.368011 
	C332.766571,155.587738 339.694214,153.832718 346.693298,153.061874 
	C354.849335,152.163589 360.838959,157.186584 364.581299,163.515762 
	C368.600281,170.312729 368.399384,178.025009 364.317322,185.240936 
	C360.075470,192.739334 352.573914,194.851227 345.089844,197.027512 
	C336.685669,199.471344 328.294373,201.960068 319.877716,204.360001 
	C314.193787,205.980682 308.478119,207.490616 302.772217,209.033661 
	C295.072205,211.115982 287.170990,212.677322 279.782715,215.556778 
	C277.499023,216.446808 276.314362,220.791214 275.140900,223.757523 
	C272.995392,229.181137 271.233276,234.756424 269.157867,240.708481 
	C270.896851,240.805832 272.623749,240.981949 274.351044,240.986237 
	C284.850861,241.012314 295.360443,241.280991 305.848022,240.921677 
	C316.791290,240.546753 328.787750,249.471924 331.347687,260.032867 
	C334.387939,272.575195 339.053619,284.715454 342.739563,297.111847 
	C345.735992,307.189301 348.192963,317.426422 351.133881,327.521423 
	C354.123901,337.784882 357.588562,347.911377 360.507843,358.193665 
	C362.340027,364.646942 364.155945,371.210541 364.881439,377.844696 
	C365.730927,385.613098 362.168732,392.065643 356.440735,397.331238 
	C355.639435,398.067810 355.290222,399.296143 354.479156,400.749451 
	C361.460327,400.749451 367.623016,400.668304 373.782654,400.771301 
	C380.526184,400.884033 387.238617,407.635895 386.662811,414.111633 
	C386.150787,419.870483 380.490662,427.305847 373.962341,427.252899 
	C345.464813,427.021667 316.964294,427.166534 288.464844,427.160187 
	C287.993134,427.160065 287.521484,426.974915 286.524353,426.766083 
	C290.227448,421.382843 294.645599,416.598419 297.146149,410.963135 
	C301.526886,401.090607 308.948029,399.332367 318.350830,400.714539 
	C319.815033,400.929779 321.338104,400.744598 323.135742,400.744598 
	C322.966797,399.653412 323.163208,398.281403 322.627045,397.874268 
	C318.075256,394.418304 315.527435,389.651764 314.177399,384.360260 
	C313.302734,380.931915 312.426147,376.958862 313.322540,373.720459 
	C316.766113,361.280243 318.003601,348.622772 316.609192,335.965668 
	C313.388397,306.731201 301.728333,281.190857 280.645416,260.419342 
	C268.404175,248.358902 254.037781,239.243607 237.931732,233.244247 
	C222.372452,227.448532 206.120789,225.796921 189.572952,226.770035 
	C186.267319,226.964417 182.940491,226.798096 179.180634,226.798096 
	C180.742508,220.698730 182.234604,214.724731 183.810471,208.772919 
	C184.760468,205.184860 185.957840,201.659836 186.836227,198.055832 
	C188.314774,191.989319 189.296463,185.776016 191.199112,179.853149 
	C191.824966,177.904861 194.463928,176.328293 196.513367,175.164825 
	C202.230499,171.919205 208.120987,168.978958 213.738617,165.200272 
	C201.775177,165.500885 190.891357,170.486908 179.690903,172.820816 
	C176.844559,182.949173 173.991638,192.655762 171.413223,202.434738 
	C169.736877,208.792603 168.906570,215.399033 166.904205,221.639664 
	C163.581604,231.994858 163.455338,243.434052 157.075577,252.722687 
	C152.125198,259.930267 144.604980,262.198303 136.326477,260.886932 
	C129.485992,259.803314 124.123108,255.946167 121.039574,249.464630 
	C118.079338,243.242233 118.486320,237.175369 120.563881,230.572830 
	C123.360817,221.684143 124.791748,212.374939 127.096725,203.319473 
	C129.415344,194.210342 132.210800,185.223038 134.561462,176.121445 
	C136.240936,169.618622 137.907288,163.072220 138.911545,156.444061 
	C140.673309,144.815933 146.364807,137.931656 157.774292,134.760880 
	C167.453445,132.070984 177.153229,129.455383 186.831802,126.763466 
	C191.255295,125.533165 195.649734,124.198364 200.860458,122.979080 
	C204.089798,122.142143 206.516006,121.237091 208.942215,120.332031 
	C202.810226,119.166649 196.855545,119.297356 190.914856,119.066811 
	C189.574463,119.014793 188.282883,117.704346 186.968842,116.973198 
z"/>
<path fill="#040404" opacity="1.000000" stroke="none" 
	d="
M116.855255,278.768799 
	C117.070633,278.283417 117.025887,278.055420 117.117958,277.961334 
	C124.662552,270.253754 124.550758,270.590057 135.077789,274.121613 
	C142.768890,276.701813 150.198166,273.621643 156.805405,270.131195 
	C165.298630,265.644470 171.067276,258.487823 173.343246,248.733994 
	C174.121887,245.397003 175.750183,242.478439 180.567215,242.781799 
	C184.764359,243.046143 189.061310,241.301849 193.302872,241.354553 
	C219.382843,241.678482 242.983063,248.795837 263.459351,265.839996 
	C277.594849,277.606140 287.714874,291.993195 294.504150,308.711884 
	C301.215607,325.238983 303.276611,342.910706 300.510559,360.332642 
	C295.846405,389.710144 282.043427,414.123688 257.015381,431.471283 
	C246.440536,438.801056 235.282928,444.399445 222.657730,447.328308 
	C212.570877,449.668304 202.483612,451.725616 192.147095,450.897552 
	C159.332947,448.268707 132.384171,434.955688 112.458275,407.908051 
	C104.597694,397.238007 99.414688,385.593353 95.355247,373.293457 
	C93.844749,368.716736 93.245773,363.713074 93.018906,358.867218 
	C92.643204,350.842072 92.769699,342.784332 92.933525,334.745392 
	C93.137383,324.741760 96.636002,315.575592 100.164650,306.345764 
	C104.042305,296.203033 109.705078,287.292755 116.855255,278.768799 
M164.889435,359.751678 
	C166.835129,363.248535 168.780838,366.745422 170.864960,370.491058 
	C158.973175,377.408356 146.842102,384.464844 134.721191,391.515411 
	C144.382034,408.313995 172.778671,423.611481 189.049591,422.411072 
	C189.049591,408.582794 189.049591,394.703308 189.049591,380.864319 
	C194.574509,380.864319 199.538055,380.864319 204.972504,380.864319 
	C204.972504,394.869476 204.972504,408.785492 204.972504,423.363647 
	C227.398056,419.735168 245.468674,410.039001 259.021576,391.737152 
	C257.344086,390.757294 255.767746,389.815399 254.171906,388.907776 
	C244.570602,383.446930 234.903763,378.096222 225.421188,372.436707 
	C223.857300,371.503326 221.262589,370.071777 224.342102,367.015747 
	C226.866409,364.510681 228.105499,360.710541 230.150742,357.062805 
	C230.649460,357.103729 231.977325,356.835785 232.860641,357.342590 
	C243.487381,363.439972 254.115799,369.541077 264.582031,375.907074 
	C267.427704,377.637909 268.267059,376.660675 268.914856,374.106476 
	C269.656952,371.180664 270.366547,368.244415 271.201385,365.344666 
	C275.316315,351.051971 273.913177,336.811646 270.582581,322.661621 
	C269.945618,319.955627 268.054016,317.544952 266.827789,315.165863 
	C254.213882,322.382019 242.169220,329.272491 230.475067,335.962494 
	C228.074539,331.603668 226.728622,327.981689 224.370697,325.225433 
	C222.218231,322.709351 222.358139,321.865479 225.141525,320.366577 
	C230.633041,317.409271 235.944229,314.117432 241.333969,310.970764 
	C247.267578,307.506622 253.205688,304.050232 259.062958,300.636444 
	C244.909302,282.646729 227.388657,272.150024 204.780060,269.259186 
	C204.780060,283.832275 204.780060,298.185028 204.780060,311.854614 
	C199.205017,311.854614 194.256821,311.854614 188.710388,311.854614 
	C188.710388,297.260406 188.710388,283.363342 188.710388,269.049530 
	C166.312714,272.596039 148.253143,282.168365 134.245483,300.695984 
	C146.724457,307.941284 158.872894,314.994690 170.711060,321.867920 
	C168.642914,325.819794 166.937057,329.726837 164.585892,333.196655 
	C163.833191,334.307434 160.855453,335.192352 159.777466,334.593506 
	C152.614960,330.614441 145.733368,326.134247 138.675262,321.961029 
	C134.494415,319.489075 130.157852,317.280457 125.970741,314.996735 
	C116.947578,336.042969 116.854301,356.458740 125.816406,376.929871 
	C126.736305,376.847656 127.706497,377.034515 128.355896,376.662079 
	C138.973602,370.572388 149.724319,364.683105 160.022797,358.089142 
	C162.820297,356.297943 163.296616,357.984833 164.889435,359.751678 
z"/>
<path fill="#020202" opacity="1.000000" stroke="none" 
	d="
M131.210388,138.777191 
	C130.539612,146.430573 124.015915,152.859924 116.939590,153.125443 
	C113.651909,153.248795 110.355751,153.146530 106.093864,153.146530 
	C108.186722,159.389526 110.385048,165.235336 112.089104,171.221848 
	C113.955185,177.777588 116.486893,184.437576 116.639290,191.099930 
	C116.775665,197.061844 114.168236,203.114639 112.594963,209.080795 
	C110.385941,217.457809 108.013649,225.791748 105.540337,234.763885 
	C104.830803,234.091141 103.476982,233.410370 103.130852,232.388351 
	C98.395531,218.406448 93.720947,204.402710 89.193939,190.351959 
	C85.595772,179.184097 82.392921,167.887161 78.696228,156.753235 
	C75.075409,145.847824 70.785904,135.161224 67.285233,124.220093 
	C64.175865,114.502007 64.931190,109.494980 73.270935,104.394707 
	C75.633224,102.950027 79.202087,103.571457 82.152435,102.940605 
	C83.085266,102.741135 84.639580,101.269272 84.499985,100.857140 
	C82.235443,94.171547 79.237862,87.697014 77.436363,80.901604 
	C75.359924,73.069061 77.425644,62.366985 89.563965,58.504181 
	C100.372253,55.064640 109.243759,64.403732 111.219902,71.552719 
	C113.674164,80.431435 117.097656,89.040024 120.033943,97.788315 
	C123.063736,106.815239 126.214958,115.809746 128.905426,124.938583 
	C130.177780,129.255722 130.499161,133.853134 131.210388,138.777191 
z"/>
<path fill="#838383" opacity="1.000000" stroke="none" 
	d="
M186.654297,117.163147 
	C188.282883,117.704346 189.574463,119.014793 190.914856,119.066811 
	C196.855545,119.297356 202.810226,119.166649 208.942215,120.332031 
	C206.516006,121.237091 204.089798,122.142143 201.273880,122.948318 
	C199.640900,122.241104 198.424301,121.184135 197.149323,121.108246 
	C193.266418,120.877121 189.360962,121.024429 184.583420,121.024429 
	C185.358948,119.403343 185.849350,118.378220 186.654297,117.163147 
z"/>
<path fill="#F9F9F9" opacity="1.000000" stroke="none" 
	d="
M164.786652,359.383301 
	C163.296616,357.984833 162.820297,356.297943 160.022797,358.089142 
	C149.724319,364.683105 138.973602,370.572388 128.355896,376.662079 
	C127.706497,377.034515 126.736305,376.847656 125.816406,376.929871 
	C116.854301,356.458740 116.947578,336.042969 125.970741,314.996735 
	C130.157852,317.280457 134.494415,319.489075 138.675262,321.961029 
	C145.733368,326.134247 152.614960,330.614441 159.777466,334.593506 
	C160.855453,335.192352 163.833191,334.307434 164.585892,333.196655 
	C166.937057,329.726837 168.642914,325.819794 170.711060,321.867920 
	C158.872894,314.994690 146.724457,307.941284 134.245483,300.695984 
	C148.253143,282.168365 166.312714,272.596039 188.710388,269.049530 
	C188.710388,283.363342 188.710388,297.260406 188.710388,311.854614 
	C194.256821,311.854614 199.205017,311.854614 204.780060,311.854614 
	C204.780060,298.185028 204.780060,283.832275 204.780060,269.259186 
	C227.388657,272.150024 244.909302,282.646729 259.062958,300.636444 
	C253.205688,304.050232 247.267578,307.506622 241.333969,310.970764 
	C235.944229,314.117432 230.633041,317.409271 225.141525,320.366577 
	C222.358139,321.865479 222.218231,322.709351 224.370697,325.225433 
	C226.728622,327.981689 228.074539,331.603668 230.475067,335.962494 
	C242.169220,329.272491 254.213882,322.382019 266.827789,315.165863 
	C268.054016,317.544952 269.945618,319.955627 270.582581,322.661621 
	C273.913177,336.811646 275.316315,351.051971 271.201385,365.344666 
	C270.366547,368.244415 269.656952,371.180664 268.914856,374.106476 
	C268.267059,376.660675 267.427704,377.637909 264.582031,375.907074 
	C254.115799,369.541077 243.487381,363.439972 232.860641,357.342590 
	C231.977325,356.835785 230.649460,357.103729 230.150742,357.062805 
	C228.105499,360.710541 226.866409,364.510681 224.342102,367.015747 
	C221.262589,370.071777 223.857300,371.503326 225.421188,372.436707 
	C234.903763,378.096222 244.570602,383.446930 254.171906,388.907776 
	C255.767746,389.815399 257.344086,390.757294 259.021576,391.737152 
	C245.468674,410.039001 227.398056,419.735168 204.972504,423.363647 
	C204.972504,408.785492 204.972504,394.869476 204.972504,380.864319 
	C199.538055,380.864319 194.574509,380.864319 189.049591,380.864319 
	C189.049591,394.703308 189.049591,408.582794 189.049591,422.411072 
	C172.778671,423.611481 144.382034,408.313995 134.721191,391.515411 
	C146.842102,384.464844 158.973175,377.408356 170.864960,370.491058 
	C168.780838,366.745422 166.835129,363.248535 164.786652,359.383301 
M185.004272,366.796875 
	C185.803589,366.998260 186.636978,367.113556 187.397003,367.414276 
	C195.217331,370.508423 202.655197,370.396576 209.780045,365.325378 
	C218.305283,359.257507 221.279190,351.424744 219.310089,341.042969 
	C217.669022,332.390686 209.882553,324.747467 202.114395,323.280640 
	C190.332718,321.055969 179.303375,326.248810 174.328995,339.292480 
	C170.939178,348.181091 176.152359,362.135468 185.004272,366.796875 
z"/>
<path fill="#040404" opacity="1.000000" stroke="none" 
	d="
M184.762131,366.475586 
	C176.152359,362.135468 170.939178,348.181091 174.328995,339.292480 
	C179.303375,326.248810 190.332718,321.055969 202.114395,323.280640 
	C209.882553,324.747467 217.669022,332.390686 219.310089,341.042969 
	C221.279190,351.424744 218.305283,359.257507 209.780045,365.325378 
	C202.655197,370.396576 195.217331,370.508423 187.397003,367.414276 
	C186.636978,367.113556 185.803589,366.998260 184.762131,366.475586 
z"/>
</svg>