<svg version="1.1" id="Layer_1" xmlns="http://www.w3.org/2000/svg" xmlns:xlink="http://www.w3.org/1999/xlink" x="0px" y="0px"
	 width="100%" viewBox="0 0 400 592" enable-background="new 0 0 400 592" xml:space="preserve">
<path fill="#000000" opacity="1.000000" stroke="none" 
	d="
M257.736938,317.322205 
	C254.264435,327.202240 250.037659,329.798035 240.444397,330.369263 
	C229.597443,331.015137 220.145523,326.747070 210.885574,322.527649 
	C204.085083,319.428925 199.209961,321.849121 194.503616,325.422333 
	C186.380524,331.589722 182.166794,340.458374 181.460297,350.360107 
	C180.278793,366.919159 178.507599,383.465210 179.137512,400.142731 
	C179.313705,404.807617 180.747391,406.226776 185.214279,406.120483 
	C192.703140,405.942261 200.206467,406.151428 207.697327,406.394226 
	C210.404007,406.481934 211.862183,404.954285 213.599991,403.313354 
	C224.413742,393.102417 236.844559,386.416718 252.064819,385.636627 
	C266.115967,384.916504 277.012177,391.277435 286.574005,400.631348 
	C298.416290,412.216156 306.041473,426.641998 312.818268,441.444031 
	C319.857178,456.818542 325.345703,472.820221 329.549805,489.223480 
	C334.970947,510.375153 338.497131,531.747437 337.375366,553.720215 
	C337.030182,560.480713 335.865570,567.068970 332.917145,573.019043 
	C327.274109,584.406921 319.162933,587.093933 306.116028,582.720703 
	C294.404419,578.795105 284.828156,571.148560 275.975555,562.759827 
	C266.311066,553.601685 256.932922,544.130493 249.097763,533.291687 
	C247.458282,531.023682 245.462585,530.229126 242.723038,530.232117 
	C198.899597,530.280029 155.076050,530.281738 111.252663,530.209167 
	C108.239182,530.204163 106.438309,531.447083 104.621841,533.728821 
	C91.942680,549.655151 78.359787,564.730042 61.222672,576.045959 
	C54.587475,580.427307 47.623142,584.122620 39.188606,584.448486 
	C29.988375,584.803894 24.476259,580.209167 20.871538,572.532410 
	C18.459124,567.394836 16.963003,561.891663 16.787994,556.213257 
	C16.413618,544.065857 15.719658,531.776978 17.889307,519.829468 
	C22.990278,491.740295 30.164690,464.225067 42.788734,438.348846 
	C49.088192,425.436493 55.805187,412.871643 65.717209,402.364258 
	C84.459000,382.496826 105.220261,380.629578 128.227661,393.939697 
	C131.827911,396.022461 135.616257,398.036591 138.250320,401.268280 
	C141.417740,405.154358 145.169449,406.473969 150.032867,406.127075 
	C154.675888,405.795929 159.368225,405.843292 164.022095,406.069489 
	C168.247086,406.274841 169.999512,404.878357 169.841232,400.379669 
	C169.542572,391.892151 168.950012,383.290375 169.945160,374.910095 
	C171.599182,360.981323 170.012161,346.515594 175.954468,333.232513 
	C181.001251,321.951233 189.629272,314.590179 201.450760,311.115967 
	C205.097046,310.044342 208.708786,311.072144 212.152374,312.538788 
	C219.040710,315.472595 225.920349,318.516663 233.261597,320.085938 
	C237.732132,321.041565 242.954681,322.576263 246.274338,318.156647 
	C249.646744,313.666809 250.486679,308.229584 248.653046,302.605591 
	C246.280563,295.328857 244.753601,287.846436 243.800873,280.263062 
	C243.538879,278.177551 243.104019,276.362152 240.900635,274.591095 
	C237.079346,278.768158 233.336472,283.115906 228.496170,286.334503 
	C208.419708,299.684418 182.178940,295.436798 167.511612,276.222412 
	C165.841385,274.034424 163.868851,272.412170 161.434891,271.214447 
	C145.011719,263.132812 135.509918,250.357574 135.101151,231.675690 
	C135.023315,228.118820 133.605530,225.932220 130.958817,223.773087 
	C115.915817,211.501312 111.563553,192.508102 119.721588,174.811157 
	C120.957954,172.129150 121.059631,169.892349 119.806274,167.252045 
	C112.798386,152.489349 114.773560,138.523087 124.067757,125.457062 
	C125.706764,123.152908 125.899963,120.956650 125.683449,118.441582 
	C124.598221,105.835938 126.851082,94.241966 135.999130,84.780167 
	C139.842880,80.804581 144.023422,77.054993 149.325806,75.395340 
	C153.213959,74.178337 154.208450,72.119209 153.797104,68.453789 
	C152.527115,57.136745 156.183914,47.373905 165.352097,40.852039 
	C179.105774,31.068235 192.741043,20.692068 209.747345,16.892668 
	C219.640076,14.682519 229.493713,13.910401 238.264572,20.712517 
	C239.555038,21.713303 240.718109,22.760321 242.635895,21.351343 
	C255.010651,12.259708 268.025574,14.630545 281.018097,19.636106 
	C291.300232,23.597467 300.544952,29.373550 309.479309,35.848923 
	C314.189301,39.262596 319.278809,42.078709 322.777588,46.871925 
	C327.388336,53.188538 329.035431,60.313889 328.240051,68.039131 
	C327.862396,71.707565 328.701050,73.787163 332.827759,75.393738 
	C346.234680,80.613228 357.116852,96.406837 356.368530,109.997520 
	C356.267914,111.824921 356.480530,113.673195 356.328217,115.493416 
	C355.928314,120.272484 357.222198,124.151634 359.948578,128.393066 
	C366.930359,139.254593 368.828888,151.288071 363.582184,163.517288 
	C361.327454,168.772812 361.431335,173.252441 363.558502,178.541046 
	C369.746124,193.925095 365.712738,211.336075 352.966736,222.036774 
	C348.305206,225.950287 346.727264,230.234467 346.412720,235.637375 
	C345.453827,252.107285 336.000427,262.715149 322.353302,270.308319 
	C319.115814,272.109650 316.316345,274.053680 313.948059,277.038422 
	C301.271973,293.013977 280.580109,298.215912 261.440979,290.536560 
	C259.773071,289.867310 258.059021,289.312958 255.587006,288.425415 
	C256.540771,298.285034 261.698578,307.356506 257.736938,317.322205 
M137.875534,167.611069 
	C142.534653,172.692520 148.405624,174.746429 155.199493,175.059067 
	C160.445496,175.300491 163.700317,179.102905 163.302582,183.761490 
	C162.928009,188.148514 160.509064,189.649094 154.622192,189.651184 
	C147.644135,189.653656 141.095673,188.340347 135.180130,184.445038 
	C134.402557,183.933014 133.451706,183.330658 132.391068,183.974457 
	C128.461578,198.276276 132.777771,208.276642 145.142715,215.424408 
	C148.703369,217.482697 150.274307,219.807312 150.210709,223.636215 
	C150.174728,225.802414 150.299194,227.981567 150.107697,230.133194 
	C148.985413,242.743073 158.205750,255.001678 170.004883,258.355804 
	C173.760147,259.423309 176.215393,262.049805 178.119202,265.330414 
	C184.491882,276.311768 201.450363,283.337463 215.410339,276.566254 
	C229.128891,269.912140 233.719330,258.446655 233.757050,244.387680 
	C233.882248,197.723206 233.847763,151.058289 233.858688,104.393532 
	C233.861603,91.902962 233.037323,90.767189 221.349899,86.541840 
	C220.882599,86.372902 220.467621,86.050255 219.995789,85.904236 
	C215.513947,84.517197 213.978271,81.340385 214.967041,77.008156 
	C215.776657,73.460876 220.519684,71.151001 224.669098,71.969826 
	C227.508331,72.530106 230.342621,73.115440 233.741409,73.803375 
	C233.241867,61.874542 234.823166,50.424736 232.974869,38.997635 
	C232.129211,33.769215 228.592346,31.036142 223.827698,30.440126 
	C214.778000,29.308092 206.864441,32.969875 198.298996,37.092628 
	C204.089752,40.457085 208.165283,44.307503 211.177185,49.224926 
	C213.138107,52.426487 213.889008,55.777153 211.531555,59.029942 
	C208.212067,63.610184 201.952133,63.374260 198.564133,57.360794 
	C195.393280,51.732773 190.100662,47.982094 183.435593,48.555515 
	C176.707474,49.134365 171.920212,53.312416 169.112732,59.575737 
	C166.485352,65.437286 168.469879,71.950577 173.183273,72.669250 
	C189.900589,75.218216 206.525406,91.594513 205.403900,111.086922 
	C205.077560,116.759094 203.558533,119.039711 198.993790,119.243813 
	C194.466537,119.446236 191.120224,116.182007 190.853027,111.054039 
	C190.722519,108.549431 190.632004,106.107193 189.702957,103.712044 
	C184.147446,89.389816 171.933456,84.581543 158.217941,87.791008 
	C145.274139,90.819901 138.017014,104.470383 140.777557,117.808792 
	C141.652710,122.037338 143.244446,126.967773 139.217026,130.484818 
	C128.777740,139.601151 127.841095,157.149109 137.875534,167.611069 
M294.757416,98.354095 
	C292.528748,102.503654 291.149902,106.784706 291.017853,111.635124 
	C290.912537,115.502892 288.734009,118.643883 284.423889,119.167976 
	C280.997894,119.584557 277.657959,118.522865 276.957001,114.900650 
	C276.175537,110.862335 275.900360,106.458275 277.106873,102.490311 
	C281.973755,86.484306 292.003510,75.761131 309.023895,72.629997 
	C311.880035,72.104568 313.237244,70.216003 313.621643,67.488304 
	C314.769775,59.340412 310.799866,53.193119 301.944855,49.380272 
	C296.739380,47.138870 289.019409,49.745155 284.816132,55.221600 
	C283.806152,56.537537 283.086151,58.087433 282.012329,59.340893 
	C278.903473,62.969883 274.137360,63.124912 271.114319,59.706001 
	C268.264526,56.483036 268.750427,53.111210 270.686279,49.565510 
	C273.445282,44.512089 277.802032,40.985188 282.646545,37.423157 
	C277.476501,33.155895 271.724030,32.055241 266.160950,30.731638 
	C254.722717,28.010193 248.374146,33.039375 248.288040,44.754845 
	C248.194992,57.418434 248.257782,70.083183 248.255096,82.747421 
	C248.254425,85.872032 248.485519,88.954887 249.756607,92.083046 
	C253.202637,91.106873 256.478485,90.518120 259.803406,90.657883 
	C263.990601,90.833900 267.368866,94.067421 267.270569,97.874008 
	C267.159058,102.192986 264.545776,104.556862 260.501556,105.240707 
	C252.096329,106.661972 248.602234,110.235222 248.334442,118.740547 
	C248.135559,125.057770 248.688965,131.398453 248.495804,137.716110 
	C247.767319,161.541473 248.500305,185.353317 248.938553,209.168304 
	C248.964233,210.563828 248.582748,212.239136 250.534531,213.216568 
	C252.840179,211.819061 255.203659,210.310974 257.638336,208.928192 
	C261.446869,206.765137 265.394104,205.264938 269.958466,205.530991 
	C272.902496,205.702591 274.745911,207.145966 275.686401,209.568802 
	C276.668396,212.098618 276.725983,214.731079 274.626312,217.033081 
	C273.093170,218.714020 271.136261,219.537704 269.135834,220.355743 
	C254.337753,226.407089 248.328781,235.814362 249.117813,251.709793 
	C249.795532,265.362671 258.952576,275.358978 274.913788,279.317169 
	C282.555573,281.212219 298.724884,275.133942 303.926575,265.448883 
	C306.032288,261.528229 309.177582,259.197754 313.388702,257.911560 
	C318.627655,256.311432 322.542328,252.819489 326.048096,248.684448 
	C332.070953,241.580490 332.227264,233.189392 331.795593,224.600967 
	C331.577301,220.257492 333.149506,217.620499 337.313080,215.170288 
	C349.223969,208.160873 353.621613,197.861237 349.569733,183.896042 
	C347.912628,183.352997 346.740448,184.405838 345.503845,185.194168 
	C339.333923,189.127548 332.407593,189.717026 325.368011,189.688644 
	C322.274323,189.676163 319.710968,188.421112 318.930908,185.218445 
	C318.138824,181.966293 318.616119,178.916687 321.757446,176.853836 
	C323.614624,175.634277 325.565338,174.942154 327.834991,174.908585 
	C331.343353,174.856689 334.716644,174.089142 337.850189,172.408875 
	C352.284760,164.668747 355.936249,145.373108 345.115479,133.182388 
	C340.104065,127.536575 340.231415,122.603256 341.567261,116.424568 
	C343.831055,105.953850 338.067047,94.406937 328.473541,89.782425 
	C315.977173,83.758575 304.756561,86.450394 294.757416,98.354095 
M70.908012,466.185455 
	C70.670357,470.246124 72.779823,471.960052 76.643730,471.943329 
	C78.976685,471.933258 81.309784,471.946594 83.642792,471.956696 
	C93.137634,471.997742 93.131088,471.998779 93.167801,481.485199 
	C93.220978,495.225677 91.505135,494.986938 107.449524,494.864380 
	C111.212532,494.835449 112.947838,493.072632 112.939728,489.366913 
	C112.930252,485.034485 113.023712,480.701752 113.005165,476.369446 
	C112.991829,473.253601 114.378593,471.840881 117.573494,471.926544 
	C121.902550,472.042633 126.238426,471.953003 130.570511,471.891052 
	C133.999573,471.842010 135.561417,470.135010 135.778595,466.610016 
	C136.657791,452.338745 136.725723,452.381683 122.575974,452.324310 
	C113.162506,452.286133 112.999153,453.886688 112.994720,442.945770 
	C112.988373,427.275574 114.553421,429.497498 98.341728,429.328583 
	C94.942795,429.293182 93.448883,431.153076 93.309357,434.225159 
	C93.143158,437.884491 93.219292,441.555267 93.208046,445.221130 
	C93.186211,452.336365 93.191299,452.336456 85.946114,452.347321 
	C85.279503,452.348297 84.612846,452.352631 83.946289,452.346497 
	C68.966446,452.208649 71.095154,452.193481 70.908012,466.185455 
M263.121918,452.592255 
	C258.347534,458.722382 258.166565,462.639465 262.421143,467.759521 
	C265.461426,471.418365 270.772614,472.527557 275.532379,470.497711 
	C279.023895,469.008728 283.226044,463.084229 282.494843,459.843018 
	C281.556274,455.682556 279.337250,452.106049 275.204529,450.302704 
	C271.047394,448.488708 267.091217,448.848846 263.121918,452.592255 
M216.945236,450.176178 
	C215.728821,451.037445 214.370346,451.754150 213.320938,452.785400 
	C209.088898,456.944061 208.784409,461.694885 212.266724,467.046600 
	C214.807114,470.950714 220.343170,472.563019 225.027954,470.763092 
	C230.373535,468.709290 233.666565,463.034790 232.352386,458.141815 
	C230.586655,451.567596 225.261963,448.570862 216.945236,450.176178 
M252.932022,476.564087 
	C246.365219,472.941193 242.791809,473.147125 238.101883,477.418732 
	C234.902512,480.332764 234.179703,488.086639 236.764603,491.765076 
	C239.787201,496.066315 246.043015,497.684784 250.405243,495.294067 
	C257.982025,491.141541 259.178650,484.083740 252.932022,476.564087 
M250.696823,425.743561 
	C244.111801,423.809998 239.205994,425.328644 236.349747,430.184875 
	C234.267151,433.725739 235.087006,440.318726 237.812454,443.258148 
	C241.165909,446.874817 245.356140,447.584076 249.707367,446.223022 
	C253.564896,445.016418 256.166107,442.084351 256.679016,437.886627 
	C257.282623,432.946594 256.374939,428.549683 250.696823,425.743561 
z"/>
<path fill="#000000" opacity="1.000000" stroke="none" 
	d="
M212.130936,126.830597 
	C216.417953,127.221199 219.100189,129.343201 220.087677,133.037460 
	C221.028473,136.557068 218.703598,138.956299 216.408142,141.252930 
	C211.436157,146.227463 205.040787,148.594986 198.651245,150.902756 
	C196.747055,151.590500 195.775726,152.464890 195.029449,154.432922 
	C191.764221,163.044022 185.975861,169.421677 177.385208,173.065491 
	C173.149536,174.862076 168.675537,174.994797 164.206451,174.696228 
	C161.039474,174.484665 159.117172,172.621796 158.428421,169.424957 
	C157.739136,166.225616 158.982376,163.825241 161.435608,162.074936 
	C163.322464,160.728714 165.456085,159.701416 167.926712,159.816025 
	C169.812729,159.903549 171.607773,159.377762 173.188080,158.459305 
	C175.773621,156.956619 178.900864,155.340851 178.855927,152.053986 
	C178.816544,149.172211 175.351410,149.550720 173.368240,148.625763 
	C158.121216,141.514420 150.048721,129.435593 148.895782,112.828629 
	C148.490936,106.997185 150.866364,104.701508 155.823456,104.608047 
	C161.358749,104.503677 162.783264,106.469360 163.432327,112.630646 
	C164.564423,123.377151 170.106552,131.188766 180.365341,135.184616 
	C189.982468,138.930527 198.544281,136.441803 206.332397,130.296417 
	C208.027100,128.959183 209.485733,127.308723 212.130936,126.830597 
z"/>
<path fill="#000000" opacity="1.000000" stroke="none" 
	d="
M201.917664,259.408936 
	C198.610458,257.602417 197.898331,255.093048 197.538284,251.807083 
	C196.290253,240.416733 189.697433,230.181915 177.080765,228.114929 
	C174.953217,227.766388 172.880096,227.081192 170.751221,226.745956 
	C167.137131,226.176865 164.949234,223.824036 164.324142,220.602341 
	C163.639938,217.075958 165.913239,214.045776 169.005417,213.232651 
	C173.312378,212.100037 174.096695,209.054947 174.973343,205.684555 
	C179.001114,190.199310 189.006241,180.574020 204.074036,175.818024 
	C207.822098,174.634979 211.624527,174.566833 215.430710,174.893280 
	C219.668579,175.256729 221.788422,178.580597 221.704391,182.056747 
	C221.617004,185.671265 219.656311,189.167847 214.987473,189.304077 
	C200.899643,189.715179 192.977798,197.631332 188.926743,210.463913 
	C187.888336,213.753296 188.811432,215.670441 191.687668,217.457855 
	C199.463959,222.290329 205.887360,228.468521 209.156982,237.284805 
	C210.871399,241.907547 212.648758,246.498001 212.337357,251.662613 
	C211.957672,257.959625 208.583145,260.810638 201.917664,259.408936 
z"/>
<path fill="#000000" opacity="1.000000" stroke="none" 
	d="
M312.349060,140.328979 
	C307.086487,146.218628 300.181732,148.814560 293.654358,151.887466 
	C294.912109,157.259140 299.727966,160.826294 306.611481,161.652466 
	C312.068481,162.307419 314.645538,164.850952 314.332458,169.273010 
	C314.044891,173.334137 310.422363,176.604309 305.549591,176.215942 
	C293.172455,175.229492 283.991333,169.135559 278.742584,157.767319 
	C277.126648,154.267426 275.428864,151.888046 271.299316,150.711258 
	C265.585297,149.082993 260.311646,146.086899 255.965683,141.744385 
	C252.271759,138.053406 251.661377,133.483826 254.646362,130.246124 
	C257.583588,127.060234 261.623383,126.997536 265.675262,130.665314 
	C278.684479,142.441223 297.077332,138.333984 304.984344,125.650612 
	C307.178955,122.130341 308.837616,118.450836 308.769165,114.035820 
	C308.681732,108.396126 312.523834,104.357407 316.946289,104.786263 
	C321.612183,105.238716 324.434265,109.595093 323.790344,115.187004 
	C322.697723,124.675758 319.369385,133.139343 312.349060,140.328979 
z"/>
<path fill="#000000" opacity="1.000000" stroke="none" 
	d="
M287.777313,229.775986 
	C289.958527,227.949738 291.829803,226.298981 293.833221,224.828217 
	C300.030273,220.278748 300.402893,217.486145 297.254974,210.388443 
	C292.659973,200.028000 284.125549,195.848434 273.732208,194.561707 
	C269.321686,194.015671 266.966858,192.092407 266.731812,187.776276 
	C266.511871,183.737045 269.312531,180.568283 273.770325,180.234039 
	C282.235870,179.599304 289.776154,182.511139 296.692200,187.130829 
	C306.322876,193.563751 311.680511,202.859146 314.125061,213.970123 
	C314.533875,215.828339 314.633118,217.472351 317.040497,217.946136 
	C321.532410,218.830170 324.184113,221.586853 323.766541,226.330612 
	C323.430145,230.152420 319.331360,233.206863 313.974884,233.144501 
	C304.816559,233.037888 293.914276,241.572723 291.653473,252.109268 
	C291.273865,253.878494 291.356415,255.745667 291.209717,257.566315 
	C290.821564,262.383362 287.295410,265.589478 282.690735,265.322052 
	C278.306580,265.067444 276.862823,262.930084 276.599182,257.393188 
	C276.083618,246.565369 280.248505,237.700333 287.777313,229.775986 
z"/>
</svg>