<svg version="1.1" id="Layer_1" xmlns="http://www.w3.org/2000/svg" xmlns:xlink="http://www.w3.org/1999/xlink" x="0px" y="0px"
	 width="100%" viewBox="0 0 466 454" enable-background="new 0 0 466 454" xml:space="preserve">
<path fill="#FDFDFD" opacity="1.000000" stroke="none" 
	d="
M303.000000,1.000003 
	C357.653717,1.000000 412.307465,1.000000 466.980591,1.000000 
	C466.980591,152.284576 466.980591,303.569153 466.980591,454.926880 
	C311.752228,454.926880 156.504395,454.926880 1.128286,454.926880 
	C1.128286,303.788116 1.128286,152.576065 1.128286,1.000000 
	C95.689003,1.000000 190.378464,1.000000 285.457428,1.401502 
	C283.147522,2.798237 280.443054,3.780011 277.749512,4.790866 
	C259.114990,11.784192 250.233490,26.317410 247.199265,45.033237 
	C245.985657,52.519039 248.398071,59.671318 250.839218,66.746567 
	C256.081909,81.941757 274.449768,96.032127 290.456146,96.926704 
	C298.180939,97.358421 305.546417,96.182167 312.786377,93.283173 
	C329.782349,86.477753 339.282257,73.456764 342.692535,56.159260 
	C344.769379,45.625023 342.543182,35.016781 336.936066,25.750765 
	C329.609589,13.643454 319.663086,4.669542 304.862122,2.649252 
	C304.179077,2.556023 303.617920,1.570143 303.000000,1.000003 
M200.057388,122.911041 
	C195.648880,124.198593 191.253525,125.533478 186.829147,126.763992 
	C177.150589,129.455826 167.451218,132.072723 157.771637,134.760910 
	C146.364761,137.928787 140.672348,144.814804 138.911362,156.446701 
	C137.907898,163.074921 136.240356,169.621170 134.560837,176.123993 
	C132.210159,185.225464 129.414963,194.212692 127.096413,203.321716 
	C124.791512,212.377151 123.361938,221.686813 120.563171,230.574707 
	C118.483734,237.178253 118.086937,243.242950 121.038277,249.467392 
	C125.724724,259.351196 137.746307,263.269653 147.349823,259.873291 
	C157.568558,256.259399 160.439606,247.837921 162.780899,238.939224 
	C165.226929,229.642487 166.932877,220.152405 169.319107,210.838242 
	C172.545349,198.245316 176.111877,185.739563 179.583069,173.010681 
	C190.844193,170.271500 201.809219,165.656174 213.733963,165.183563 
	C208.120377,168.980255 202.229568,171.919785 196.512329,175.165100 
	C194.462952,176.328384 191.824951,177.905991 191.199051,179.854523 
	C189.296539,185.777344 188.314911,191.990555 186.836212,198.056931 
	C185.957748,201.660843 184.759689,205.185623 183.809769,208.773636 
	C182.234070,214.725250 180.742538,220.699158 179.181168,226.797974 
	C182.941757,226.797974 186.268631,226.964386 189.574249,226.769897 
	C206.122116,225.796310 222.373825,227.449051 237.932770,233.244537 
	C254.038544,239.243683 268.404877,248.358978 280.645966,260.419739 
	C301.728607,281.191864 313.388763,306.732147 316.609344,335.966797 
	C318.003723,348.623871 316.765808,361.281342 313.322479,373.721558 
	C312.426208,376.959717 313.304169,380.932434 314.178467,384.360870 
	C315.527924,389.652771 318.076080,394.418854 322.627441,397.875061 
	C323.163391,398.282074 322.966827,399.653748 323.135590,400.744720 
	C321.337616,400.744720 319.814575,400.929932 318.350372,400.714661 
	C308.947357,399.332123 301.526764,401.091766 297.146057,410.963593 
	C294.645386,416.598785 290.227509,421.383148 286.524445,426.766449 
	C287.521973,426.975098 287.993683,427.160034 288.465485,427.160126 
	C316.964752,427.166473 345.465088,427.021637 373.962433,427.252808 
	C380.490936,427.305725 386.150787,419.870270 386.662689,414.111389 
	C387.238312,407.635864 380.525452,400.884064 373.782104,400.771362 
	C367.622559,400.668427 361.459991,400.749542 354.478821,400.749542 
	C355.290070,399.296021 355.639343,398.067719 356.440613,397.331146 
	C362.168579,392.065582 365.730927,385.613098 364.881317,377.844635 
	C364.155792,371.210541 362.339874,364.647003 360.507721,358.193787 
	C357.588409,347.911530 354.123779,337.785004 351.133759,327.521545 
	C348.192841,317.426544 345.735931,307.189423 342.739441,297.111969 
	C339.053528,284.715546 334.387939,272.575226 331.347565,260.032898 
	C328.787598,249.472427 316.792297,240.546936 305.847931,240.921753 
	C295.360413,241.280930 284.850922,241.012375 274.351166,240.986298 
	C272.623840,240.982010 270.896912,240.805954 269.157623,240.708603 
	C271.233093,234.756592 272.995300,229.181290 275.140778,223.757614 
	C276.314178,220.791290 277.498749,216.446793 279.782410,215.556747 
	C287.170654,212.677277 295.071808,211.115982 302.771790,209.033615 
	C308.477661,207.490540 314.193298,205.980484 319.877228,204.359833 
	C328.293945,201.959946 336.685333,199.471268 345.089539,197.027451 
	C352.573639,194.851181 360.075104,192.739212 364.317108,185.240906 
	C368.399292,178.025070 368.600250,170.312866 364.581268,163.516037 
	C360.838928,157.187103 354.849579,152.163666 346.693542,153.061951 
	C339.694489,153.832809 332.766876,155.587830 325.927551,157.368088 
	C320.417358,158.802368 315.133514,161.086334 309.659790,162.687378 
	C305.669006,163.854675 301.532532,164.524002 297.062408,165.502579 
	C298.608734,159.764893 299.634308,154.634750 301.381439,149.763412 
	C304.610352,140.760834 301.543274,132.820587 297.791473,124.970779 
	C292.303986,113.489525 281.558411,109.003754 270.538269,105.073380 
	C260.408203,101.460449 249.949158,98.657608 240.082932,94.448097 
	C229.828537,90.072983 219.830704,89.215660 209.359222,92.779594 
	C197.526535,96.806831 190.706818,105.460938 186.339935,117.353271 
	C185.849564,118.378319 185.359192,119.403366 184.583755,121.024292 
	C189.361374,121.024292 193.266785,120.876968 197.149673,121.108116 
	C198.424561,121.183998 199.641037,122.241096 200.057388,122.911041 
M291.775879,389.245361 
	C294.773804,379.604950 299.122498,370.149384 300.472504,360.283478 
	C302.865967,342.791656 301.231506,325.199707 294.494781,308.671417 
	C287.683624,291.960449 277.563690,277.577606 263.442535,265.814575 
	C242.973755,248.763901 219.361496,241.671234 193.281677,241.353058 
	C189.206757,241.303329 185.090591,242.964584 181.042908,242.775726 
	C176.024399,242.541534 174.208633,245.197983 173.146835,249.219482 
	C168.736771,265.922150 155.202179,273.571869 140.856140,274.603607 
	C136.348038,274.927856 131.678268,272.452820 127.020607,271.595001 
	C125.671677,271.346527 123.548172,271.782532 122.733749,272.727203 
	C117.628036,278.649384 112.354393,284.505737 107.962975,290.947449 
	C100.117706,302.455566 95.503464,315.513794 93.353981,329.137451 
	C92.062241,337.324493 92.571335,345.861847 92.900566,354.216980 
	C93.150444,360.558258 93.514496,367.133942 95.378288,373.122772 
	C99.221237,385.471191 104.484772,397.125092 112.352913,407.784424 
	C132.754562,435.423492 160.286652,448.936493 193.969116,450.845123 
	C199.927582,451.182770 206.031769,450.102142 211.981613,449.138885 
	C218.979675,448.005890 226.224747,447.171417 232.759216,444.646027 
	C248.557388,438.540405 262.727386,429.528351 274.056244,416.755066 
	C281.155823,408.750336 287.588593,400.147247 291.775879,389.245361 
M126.925934,118.511711 
	C124.427948,111.367996 121.896790,104.235672 119.440742,97.077576 
	C116.649849,88.943588 113.573341,80.885307 111.258484,72.615669 
	C108.038284,61.111809 100.141251,55.837936 89.186600,58.786526 
	C77.459106,61.943142 75.196159,72.860046 77.578300,81.331627 
	C79.439507,87.950607 82.286575,94.289345 84.487518,100.822708 
	C84.632759,101.253853 83.106071,102.751373 82.186745,102.945244 
	C79.229256,103.568932 75.639847,102.917313 73.285103,104.367065 
	C65.017303,109.457352 64.137802,114.381020 67.277946,124.194778 
	C70.779701,135.138672 75.071365,145.827698 78.693001,156.735962 
	C82.390503,167.872742 85.593102,179.172852 89.191841,190.343643 
	C93.719566,204.398102 98.395241,218.405441 103.131584,232.390945 
	C103.477188,233.411469 104.832100,234.090164 105.913666,235.113052 
	C107.076698,230.005386 107.947937,225.733292 109.038002,221.517807 
	C110.118111,217.340866 111.519089,213.246887 112.598755,209.069855 
	C114.143379,203.093994 116.779831,197.046188 116.639664,191.083420 
	C116.483078,184.422394 113.935730,177.767273 112.070686,171.211502 
	C110.368156,165.226959 108.186806,159.378616 106.130402,153.212128 
	C109.883919,153.212128 112.679642,153.254730 115.473686,153.204315 
	C124.666328,153.038452 131.663223,146.436798 131.071167,137.210510 
	C130.684235,131.180801 128.468658,125.268463 126.925934,118.511711 
z"/>
<path fill="#020202" opacity="1.000000" stroke="none" 
	d="
M302.532410,1.000003 
	C303.617920,1.570143 304.179077,2.556023 304.862122,2.649252 
	C319.663086,4.669542 329.609589,13.643454 336.936066,25.750765 
	C342.543182,35.016781 344.769379,45.625023 342.692535,56.159260 
	C339.282257,73.456764 329.782349,86.477753 312.786377,93.283173 
	C305.546417,96.182167 298.180939,97.358421 290.456146,96.926704 
	C274.449768,96.032127 256.081909,81.941757 250.839218,66.746567 
	C248.398071,59.671318 245.985657,52.519039 247.199265,45.033237 
	C250.233490,26.317410 259.114990,11.784192 277.749512,4.790866 
	C280.443054,3.780011 283.147522,2.798237 285.923462,1.401502 
	C291.354919,1.000000 296.709869,1.000000 302.532410,1.000003 
z"/>
<path fill="#020202" opacity="1.000000" stroke="none" 
	d="
M186.968887,116.973221 
	C190.706818,105.460938 197.526535,96.806831 209.359222,92.779594 
	C219.830704,89.215660 229.828537,90.072983 240.082932,94.448097 
	C249.949158,98.657608 260.408203,101.460449 270.538269,105.073380 
	C281.558411,109.003754 292.303986,113.489525 297.791473,124.970779 
	C301.543274,132.820587 304.610352,140.760834 301.381439,149.763412 
	C299.634308,154.634750 298.608734,159.764893 297.062408,165.502579 
	C301.532532,164.524002 305.669006,163.854675 309.659790,162.687378 
	C315.133514,161.086334 320.417358,158.802368 325.927551,157.368088 
	C332.766876,155.587830 339.694489,153.832809 346.693542,153.061951 
	C354.849579,152.163666 360.838928,157.187103 364.581268,163.516037 
	C368.600250,170.312866 368.399292,178.025070 364.317108,185.240906 
	C360.075104,192.739212 352.573639,194.851181 345.089539,197.027451 
	C336.685333,199.471268 328.293945,201.959946 319.877228,204.359833 
	C314.193298,205.980484 308.477661,207.490540 302.771790,209.033615 
	C295.071808,211.115982 287.170654,212.677277 279.782410,215.556747 
	C277.498749,216.446793 276.314178,220.791290 275.140778,223.757614 
	C272.995300,229.181290 271.233093,234.756592 269.157623,240.708603 
	C270.896912,240.805954 272.623840,240.982010 274.351166,240.986298 
	C284.850922,241.012375 295.360413,241.280930 305.847931,240.921753 
	C316.792297,240.546936 328.787598,249.472427 331.347565,260.032898 
	C334.387939,272.575226 339.053528,284.715546 342.739441,297.111969 
	C345.735931,307.189423 348.192841,317.426544 351.133759,327.521545 
	C354.123779,337.785004 357.588409,347.911530 360.507721,358.193787 
	C362.339874,364.647003 364.155792,371.210541 364.881317,377.844635 
	C365.730927,385.613098 362.168579,392.065582 356.440613,397.331146 
	C355.639343,398.067719 355.290070,399.296021 354.478821,400.749542 
	C361.459991,400.749542 367.622559,400.668427 373.782104,400.771362 
	C380.525452,400.884064 387.238312,407.635864 386.662689,414.111389 
	C386.150787,419.870270 380.490936,427.305725 373.962433,427.252808 
	C345.465088,427.021637 316.964752,427.166473 288.465485,427.160126 
	C287.993683,427.160034 287.521973,426.975098 286.524445,426.766449 
	C290.227509,421.383148 294.645386,416.598785 297.146057,410.963593 
	C301.526764,401.091766 308.947357,399.332123 318.350372,400.714661 
	C319.814575,400.929932 321.337616,400.744720 323.135590,400.744720 
	C322.966827,399.653748 323.163391,398.282074 322.627441,397.875061 
	C318.076080,394.418854 315.527924,389.652771 314.178467,384.360870 
	C313.304169,380.932434 312.426208,376.959717 313.322479,373.721558 
	C316.765808,361.281342 318.003723,348.623871 316.609344,335.966797 
	C313.388763,306.732147 301.728607,281.191864 280.645966,260.419739 
	C268.404877,248.358978 254.038544,239.243683 237.932770,233.244537 
	C222.373825,227.449051 206.122116,225.796310 189.574249,226.769897 
	C186.268631,226.964386 182.941757,226.797974 179.181168,226.797974 
	C180.742538,220.699158 182.234070,214.725250 183.809769,208.773636 
	C184.759689,205.185623 185.957748,201.660843 186.836212,198.056931 
	C188.314911,191.990555 189.296539,185.777344 191.199051,179.854523 
	C191.824951,177.905991 194.462952,176.328384 196.512329,175.165100 
	C202.229568,171.919785 208.120377,168.980255 213.733963,165.183563 
	C201.809219,165.656174 190.844193,170.271500 179.583069,173.010681 
	C176.111877,185.739563 172.545349,198.245316 169.319107,210.838242 
	C166.932877,220.152405 165.226929,229.642487 162.780899,238.939224 
	C160.439606,247.837921 157.568558,256.259399 147.349823,259.873291 
	C137.746307,263.269653 125.724724,259.351196 121.038277,249.467392 
	C118.086937,243.242950 118.483734,237.178253 120.563171,230.574707 
	C123.361938,221.686813 124.791512,212.377151 127.096413,203.321716 
	C129.414963,194.212692 132.210159,185.225464 134.560837,176.123993 
	C136.240356,169.621170 137.907898,163.074921 138.911362,156.446701 
	C140.672348,144.814804 146.364761,137.928787 157.771637,134.760910 
	C167.451218,132.072723 177.150589,129.455826 186.829147,126.763992 
	C191.253525,125.533478 195.648880,124.198593 200.860504,122.979126 
	C204.089828,122.142143 206.516022,121.237091 208.942230,120.332031 
	C202.817200,119.166656 196.859039,119.297295 190.914871,119.066818 
	C189.574493,119.014847 188.282928,117.704361 186.968887,116.973221 
z"/>
<path fill="#040404" opacity="1.000000" stroke="none" 
	d="
M291.544067,389.569031 
	C287.588593,400.147247 281.155823,408.750336 274.056244,416.755066 
	C262.727386,429.528351 248.557388,438.540405 232.759216,444.646027 
	C226.224747,447.171417 218.979675,448.005890 211.981613,449.138885 
	C206.031769,450.102142 199.927582,451.182770 193.969116,450.845123 
	C160.286652,448.936493 132.754562,435.423492 112.352913,407.784424 
	C104.484772,397.125092 99.221237,385.471191 95.378288,373.122772 
	C93.514496,367.133942 93.150444,360.558258 92.900566,354.216980 
	C92.571335,345.861847 92.062241,337.324493 93.353981,329.137451 
	C95.503464,315.513794 100.117706,302.455566 107.962975,290.947449 
	C112.354393,284.505737 117.628036,278.649384 122.733749,272.727203 
	C123.548172,271.782532 125.671677,271.346527 127.020607,271.595001 
	C131.678268,272.452820 136.348038,274.927856 140.856140,274.603607 
	C155.202179,273.571869 168.736771,265.922150 173.146835,249.219482 
	C174.208633,245.197983 176.024399,242.541534 181.042908,242.775726 
	C185.090591,242.964584 189.206757,241.303329 193.281677,241.353058 
	C219.361496,241.671234 242.973755,248.763901 263.442535,265.814575 
	C277.563690,277.577606 287.683624,291.960449 294.494781,308.671417 
	C301.231506,325.199707 302.865967,342.791656 300.472504,360.283478 
	C299.122498,370.149384 294.773804,379.604950 291.544067,389.569031 
M240.575043,361.893585 
	C248.681442,366.725189 256.742432,371.637817 264.972168,376.249298 
	C265.706726,376.660858 268.301208,375.430267 268.713531,374.422760 
	C269.907928,371.504272 270.354462,368.289062 271.228821,365.228668 
	C275.314392,350.928223 273.904938,336.688812 270.549164,322.543610 
	C269.913513,319.864197 267.980164,317.492676 266.775879,315.224518 
	C254.145020,322.431244 242.117325,329.293823 230.510757,335.916138 
	C228.031738,331.479858 226.656631,327.879150 224.295395,325.123413 
	C222.063599,322.518768 222.808609,321.637207 225.227814,320.290070 
	C230.682846,317.252411 236.051636,314.059662 241.451843,310.923737 
	C247.302246,307.526367 253.148483,304.121796 259.043701,300.692963 
	C245.102173,282.631989 227.410645,272.319336 204.936020,269.219238 
	C204.936020,283.892609 204.936020,298.179993 204.936020,311.788635 
	C199.413544,311.788635 194.318115,311.788635 188.786316,311.788635 
	C188.786316,297.268158 188.786316,283.494934 188.786316,269.120270 
	C166.325439,272.515778 148.257675,282.163940 134.710175,300.078979 
	C135.715485,301.143982 136.335907,302.188293 137.253464,302.714325 
	C148.444168,309.130035 159.678513,315.469604 170.770950,321.754913 
	C168.720779,325.691284 166.954300,329.730255 164.536118,333.331665 
	C163.810394,334.412506 160.789291,335.160614 159.640152,334.540619 
	C154.502167,331.768341 149.762146,328.268921 144.686005,325.368896 
	C138.527618,321.850647 132.175858,318.670868 125.797760,315.286255 
	C115.727585,343.496979 117.847977,355.925964 126.225166,377.453979 
	C138.231186,370.558197 150.161972,363.705658 162.540710,356.595825 
	C165.406784,361.273285 168.209305,365.847076 171.000977,370.403137 
	C158.784988,377.523193 146.661041,384.589600 134.125046,391.896179 
	C148.590836,409.877258 166.135376,420.410095 188.973480,423.243195 
	C188.973480,408.662720 188.973480,394.773407 188.973480,381.014648 
	C194.596542,381.014648 199.664917,381.014648 205.228088,381.014648 
	C205.228088,395.160797 205.228088,409.042297 205.228088,423.359161 
	C227.614761,419.608856 245.720490,409.922394 259.043030,391.664398 
	C246.713821,384.500977 234.655396,377.494873 222.494293,370.429138 
	C224.806732,366.408661 227.385727,362.992584 228.787430,359.147369 
	C229.893875,356.112122 231.232468,356.755157 233.050995,357.660919 
	C235.399460,358.830597 237.669083,360.158539 240.575043,361.893585 
z"/>
<path fill="#020202" opacity="1.000000" stroke="none" 
	d="
M126.999054,118.907631 
	C128.468658,125.268463 130.684235,131.180801 131.071167,137.210510 
	C131.663223,146.436798 124.666328,153.038452 115.473686,153.204315 
	C112.679642,153.254730 109.883919,153.212128 106.130402,153.212128 
	C108.186806,159.378616 110.368156,165.226959 112.070686,171.211502 
	C113.935730,177.767273 116.483078,184.422394 116.639664,191.083420 
	C116.779831,197.046188 114.143379,203.093994 112.598755,209.069855 
	C111.519089,213.246887 110.118111,217.340866 109.038002,221.517807 
	C107.947937,225.733292 107.076698,230.005386 105.913666,235.113052 
	C104.832100,234.090164 103.477188,233.411469 103.131584,232.390945 
	C98.395241,218.405441 93.719566,204.398102 89.191841,190.343643 
	C85.593102,179.172852 82.390503,167.872742 78.693001,156.735962 
	C75.071365,145.827698 70.779701,135.138672 67.277946,124.194778 
	C64.137802,114.381020 65.017303,109.457352 73.285103,104.367065 
	C75.639847,102.917313 79.229256,103.568932 82.186745,102.945244 
	C83.106071,102.751373 84.632759,101.253853 84.487518,100.822708 
	C82.286575,94.289345 79.439507,87.950607 77.578300,81.331627 
	C75.196159,72.860046 77.459106,61.943142 89.186600,58.786526 
	C100.141251,55.837936 108.038284,61.111809 111.258484,72.615669 
	C113.573341,80.885307 116.649849,88.943588 119.440742,97.077576 
	C121.896790,104.235672 124.427948,111.367996 126.999054,118.907631 
z"/>
<path fill="#838383" opacity="1.000000" stroke="none" 
	d="
M186.654419,117.163246 
	C188.282928,117.704361 189.574493,119.014847 190.914871,119.066818 
	C196.859039,119.297295 202.817200,119.166656 208.942230,120.332031 
	C206.516022,121.237091 204.089828,122.142143 201.273926,122.948349 
	C199.641037,122.241096 198.424561,121.183998 197.149673,121.108116 
	C193.266785,120.876968 189.361374,121.024292 184.583755,121.024292 
	C185.359192,119.403366 185.849564,118.378319 186.654419,117.163246 
z"/>
<path fill="#F9F9F9" opacity="1.000000" stroke="none" 
	d="
M240.273865,361.655945 
	C237.669083,360.158539 235.399460,358.830597 233.050995,357.660919 
	C231.232468,356.755157 229.893875,356.112122 228.787430,359.147369 
	C227.385727,362.992584 224.806732,366.408661 222.494293,370.429138 
	C234.655396,377.494873 246.713821,384.500977 259.043030,391.664398 
	C245.720490,409.922394 227.614761,419.608856 205.228088,423.359161 
	C205.228088,409.042297 205.228088,395.160797 205.228088,381.014648 
	C199.664917,381.014648 194.596542,381.014648 188.973480,381.014648 
	C188.973480,394.773407 188.973480,408.662720 188.973480,423.243195 
	C166.135376,420.410095 148.590836,409.877258 134.125046,391.896179 
	C146.661041,384.589600 158.784988,377.523193 171.000977,370.403137 
	C168.209305,365.847076 165.406784,361.273285 162.540710,356.595825 
	C150.161972,363.705658 138.231186,370.558197 126.225166,377.453979 
	C117.847977,355.925964 115.727585,343.496979 125.797760,315.286255 
	C132.175858,318.670868 138.527618,321.850647 144.686005,325.368896 
	C149.762146,328.268921 154.502167,331.768341 159.640152,334.540619 
	C160.789291,335.160614 163.810394,334.412506 164.536118,333.331665 
	C166.954300,329.730255 168.720779,325.691284 170.770950,321.754913 
	C159.678513,315.469604 148.444168,309.130035 137.253464,302.714325 
	C136.335907,302.188293 135.715485,301.143982 134.710175,300.078979 
	C148.257675,282.163940 166.325439,272.515778 188.786316,269.120270 
	C188.786316,283.494934 188.786316,297.268158 188.786316,311.788635 
	C194.318115,311.788635 199.413544,311.788635 204.936020,311.788635 
	C204.936020,298.179993 204.936020,283.892609 204.936020,269.219238 
	C227.410645,272.319336 245.102173,282.631989 259.043701,300.692963 
	C253.148483,304.121796 247.302246,307.526367 241.451843,310.923737 
	C236.051636,314.059662 230.682846,317.252411 225.227814,320.290070 
	C222.808609,321.637207 222.063599,322.518768 224.295395,325.123413 
	C226.656631,327.879150 228.031738,331.479858 230.510757,335.916138 
	C242.117325,329.293823 254.145020,322.431244 266.775879,315.224518 
	C267.980164,317.492676 269.913513,319.864197 270.549164,322.543610 
	C273.904938,336.688812 275.314392,350.928223 271.228821,365.228668 
	C270.354462,368.289062 269.907928,371.504272 268.713531,374.422760 
	C268.301208,375.430267 265.706726,376.660858 264.972168,376.249298 
	C256.742432,371.637817 248.681442,366.725189 240.273865,361.655945 
M199.274597,322.967041 
	C194.492050,323.958862 189.149933,323.915283 185.033630,326.139893 
	C173.455429,332.397156 169.350464,346.918152 176.892105,358.918518 
	C181.897644,366.883392 196.279114,372.645721 204.548462,368.622467 
	C214.353027,363.852295 221.611282,356.668762 219.319046,341.148743 
	C218.131577,333.108734 209.056244,323.860596 199.274597,322.967041 
z"/>
<path fill="#040404" opacity="1.000000" stroke="none" 
	d="
M199.732513,322.971375 
	C209.056244,323.860596 218.131577,333.108734 219.319046,341.148743 
	C221.611282,356.668762 214.353027,363.852295 204.548462,368.622467 
	C196.279114,372.645721 181.897644,366.883392 176.892105,358.918518 
	C169.350464,346.918152 173.455429,332.397156 185.033630,326.139893 
	C189.149933,323.915283 194.492050,323.958862 199.732513,322.971375 
z"/>
</svg>