<svg version="1.1" id="Layer_1" xmlns="http://www.w3.org/2000/svg" xmlns:xlink="http://www.w3.org/1999/xlink" x="0px" y="0px"
	 width="100%" viewBox="0 0 188 210" enable-background="new 0 0 188 210" xml:space="preserve">
<path fill="#000001" opacity="1.000000" stroke="none" 
	d="
M120.000000,211.000000 
	C80.024826,211.000000 40.549648,211.000000 1.037237,211.000000 
	C1.037237,141.068832 1.037237,71.137642 1.037237,1.103226 
	C63.558315,1.103226 126.116859,1.103226 188.837708,1.103226 
	C188.837708,70.999687 188.837708,140.999817 188.837708,211.000000 
	C166.137924,211.000000 143.318970,211.000000 120.000000,211.000000 
M97.037674,181.282730 
	C105.575813,182.198685 105.564362,182.197784 106.223663,173.814316 
	C106.842934,165.939774 107.489937,158.067413 108.145126,149.941254 
	C117.819466,152.323517 127.071373,152.221771 133.513809,145.134628 
	C139.334427,138.731506 145.906891,134.050842 153.038116,129.410233 
	C162.274353,123.399796 168.428833,102.010033 165.307846,91.360550 
	C164.934311,90.085945 164.399353,88.859398 163.999588,87.591537 
	C163.554901,86.181244 163.001480,84.773651 162.801636,83.322708 
	C161.105057,71.004410 153.810745,61.816849 145.745270,53.155548 
	C143.649063,50.904480 140.769394,49.327259 138.105469,47.672554 
	C133.089874,44.557102 128.301498,40.626434 122.829720,38.779808 
	C106.992622,33.435085 90.884727,32.282143 74.200081,35.940784 
	C53.191029,40.547695 37.113323,50.841526 27.656237,70.598236 
	C19.491190,87.655754 23.502213,109.597656 46.819305,116.549500 
	C48.249531,116.975906 50.034462,118.053314 50.579926,119.298492 
	C53.448494,125.846855 57.986504,130.606400 64.827713,133.474915 
	C62.020435,137.127472 59.135155,140.390381 56.824642,144.019257 
	C54.269653,148.032089 51.022858,150.114731 46.218319,150.157150 
	C44.462116,150.172623 42.714478,151.158783 40.934715,151.710861 
	C44.780090,155.856720 48.240761,159.401459 51.479240,163.138718 
	C54.039890,166.093765 55.864605,165.451904 58.280243,162.804504 
	C65.238029,155.179199 72.382362,147.720444 79.601891,140.341522 
	C80.684555,139.234970 82.596069,138.283737 84.068222,138.358734 
	C86.644379,138.489990 89.177139,139.472977 93.143623,140.446548 
	C93.143623,148.860001 93.333282,157.645309 93.018600,166.412521 
	C92.933258,168.790146 91.597244,171.273727 90.337036,173.415543 
	C89.097794,175.521683 87.225769,177.255508 85.631416,179.152710 
	C85.887360,179.626389 86.143303,180.100082 86.399239,180.573761 
	C89.647263,180.785446 92.895287,180.997131 97.037674,181.282730 
z"/>
<path fill="#006ABF" opacity="1.000000" stroke="none" 
	d="
M96.590492,181.245773 
	C92.895287,180.997131 89.647263,180.785446 86.399239,180.573761 
	C86.143303,180.100082 85.887360,179.626389 85.631416,179.152710 
	C87.225769,177.255508 89.097794,175.521683 90.337036,173.415543 
	C91.597244,171.273727 92.933258,168.790146 93.018600,166.412521 
	C93.333282,157.645309 93.143623,148.860001 93.143623,140.446548 
	C89.177139,139.472977 86.644379,138.489990 84.068222,138.358734 
	C82.596069,138.283737 80.684555,139.234970 79.601891,140.341522 
	C72.382362,147.720444 65.238029,155.179199 58.280243,162.804504 
	C55.864605,165.451904 54.039890,166.093765 51.479240,163.138718 
	C48.240761,159.401459 44.780090,155.856720 40.934715,151.710861 
	C42.714478,151.158783 44.462116,150.172623 46.218319,150.157150 
	C51.022858,150.114731 54.269653,148.032089 56.824642,144.019257 
	C59.135155,140.390381 62.020435,137.127472 64.827713,133.474915 
	C57.986504,130.606400 53.448494,125.846855 50.579926,119.298492 
	C50.034462,118.053314 48.249531,116.975906 46.819305,116.549500 
	C23.502213,109.597656 19.491190,87.655754 27.656237,70.598236 
	C37.113323,50.841526 53.191029,40.547695 74.200081,35.940784 
	C90.884727,32.282143 106.992622,33.435085 122.829720,38.779808 
	C128.301498,40.626434 133.089874,44.557102 138.105469,47.672554 
	C140.769394,49.327259 143.649063,50.904480 145.745270,53.155548 
	C153.810745,61.816849 161.105057,71.004410 162.801636,83.322708 
	C163.001480,84.773651 163.554901,86.181244 163.999588,87.591537 
	C164.399353,88.859398 164.934311,90.085945 165.307846,91.360550 
	C168.428833,102.010033 162.274353,123.399796 153.038116,129.410233 
	C145.906891,134.050842 139.334427,138.731506 133.513809,145.134628 
	C127.071373,152.221771 117.819466,152.323517 108.145126,149.941254 
	C107.489937,158.067413 106.842934,165.939774 106.223663,173.814316 
	C105.564362,182.197784 105.575813,182.198685 96.590492,181.245773 
M51.595974,75.402206 
	C44.932316,78.680611 42.481754,92.304329 47.890545,97.347343 
	C48.932945,98.319244 51.833397,98.651382 53.003460,97.906662 
	C59.125698,94.009964 58.520679,79.097488 51.595974,75.402206 
M86.755920,90.501602 
	C83.656853,88.834137 81.625267,90.369392 80.214165,92.932716 
	C77.335136,98.162613 76.981667,103.739456 79.116287,109.239120 
	C79.723900,110.804573 81.692238,112.731445 83.148834,112.829788 
	C84.631157,112.929871 86.959427,111.332207 87.689110,109.866524 
	C90.791023,103.635818 91.530609,97.223503 86.755920,90.501602 
M100.652115,86.922623 
	C94.931679,81.061531 89.483826,79.799171 87.014824,82.804665 
	C90.525490,84.525261 94.978035,85.603790 97.728767,88.372849 
	C100.363998,91.025627 101.232178,95.433746 102.876968,99.070404 
	C103.527710,98.805099 104.178444,98.539795 104.829185,98.274498 
	C103.572861,94.697845 102.316536,91.121193 100.652115,86.922623 
M44.436085,64.657722 
	C43.090145,65.739693 41.744202,66.821671 40.398258,67.903648 
	C40.499767,68.609673 40.601280,69.315704 40.702789,70.021736 
	C50.327038,62.291512 56.906960,67.651390 63.401932,75.149895 
	C62.817158,66.673004 54.428108,62.312489 44.436085,64.657722 
z"/>
<path fill="#000407" opacity="1.000000" stroke="none" 
	d="
M51.954170,75.419662 
	C58.520679,79.097488 59.125698,94.009964 53.003460,97.906662 
	C51.833397,98.651382 48.932945,98.319244 47.890545,97.347343 
	C42.481754,92.304329 44.932316,78.680611 51.954170,75.419662 
z"/>
<path fill="#010B22" opacity="1.000000" stroke="none" 
	d="
M87.059357,90.758072 
	C91.530609,97.223503 90.791023,103.635818 87.689110,109.866524 
	C86.959427,111.332207 84.631157,112.929871 83.148834,112.829788 
	C81.692238,112.731445 79.723900,110.804573 79.116287,109.239120 
	C76.981667,103.739456 77.335136,98.162613 80.214165,92.932716 
	C81.625267,90.369392 83.656853,88.834137 87.059357,90.758072 
z"/>
<path fill="#000C16" opacity="1.000000" stroke="none" 
	d="
M100.856155,87.233582 
	C102.316536,91.121193 103.572861,94.697845 104.829185,98.274498 
	C104.178444,98.539795 103.527710,98.805099 102.876968,99.070404 
	C101.232178,95.433746 100.363998,91.025627 97.728767,88.372849 
	C94.978035,85.603790 90.525490,84.525261 87.014824,82.804665 
	C89.483826,79.799171 94.931679,81.061531 100.856155,87.233582 
z"/>
<path fill="#000C15" opacity="1.000000" stroke="none" 
	d="
M44.771259,64.489624 
	C54.428108,62.312489 62.817158,66.673004 63.401932,75.149895 
	C56.906960,67.651390 50.327038,62.291512 40.702789,70.021736 
	C40.601280,69.315704 40.499767,68.609673 40.398258,67.903648 
	C41.744202,66.821671 43.090145,65.739693 44.771259,64.489624 
z"/>
</svg>